/* XPM */
static char *_e0eb17861a14d2dae0c4a5b3d9890f7LBQi6dc1o0gloh32[] = {
/* columns rows colors chars-per-pixel */
"64 64 77 1 ",
"  c #5A5146",
". c #5E574C",
"X c #645B4F",
"o c #685E4E",
"O c #665D52",
"+ c #695F52",
"@ c #676056",
"# c #6C6255",
"$ c #6E655A",
"% c #6E685F",
"& c #716556",
"* c #71665A",
"= c #746A5D",
"- c #796D5E",
"; c #7C705E",
": c #6F6A61",
"> c #766D61",
", c #796E62",
"< c #777066",
"1 c #7C7265",
"2 c #777168",
"3 c #7D7469",
"4 c #7F7568",
"5 c #7D756B",
"6 c #7F786E",
"7 c #807464",
"8 c #817567",
"9 c #867766",
"0 c #887764",
"q c #837867",
"w c #837668",
"e c #81776A",
"r c #80776C",
"t c #83796B",
"y c #847A6B",
"u c #82786D",
"i c #847B6D",
"p c #847B6E",
"a c #857C6F",
"s c #887B6C",
"d c #887D6F",
"f c #8C7E6E",
"g c #867D71",
"h c #857D73",
"j c #8A7E70",
"k c #8C7F70",
"l c #8A7F74",
"z c #8C806F",
"x c #878076",
"c c #898072",
"v c #8C8070",
"b c #8B8174",
"n c #8C8374",
"m c #8F8476",
"M c #8C8578",
"N c #8E8579",
"B c #8F887D",
"V c #908271",
"C c #928575",
"Z c #958977",
"A c #908678",
"S c #928779",
"D c #948878",
"F c #958A7A",
"G c #948A7B",
"H c #978C7A",
"J c #978B7C",
"K c #998C7B",
"L c #9E917F",
"P c #A0927F",
"I c #948D82",
"U c #9D9383",
"Y c #999288",
"T c #A29483",
"R c #A49A8A",
"E c #A89988",
"W c #ADA18F",
/* pixels */
"1pc-3h3$33u-ue131$>a>=1uuu8811+=1t,111$1e&#a,1331>yeO-1O,131*tu1",
"1=1>up3>331ue#=a==<yt1->p88--1&$>j1,y-,>==11#,t>11k8#,1O>31d>1ee",
">,-ydp1>-3-c$=*333=d=e1=1-19>e813mp1a,pe*&dm=11$1ept=8e*$,>De*,1",
"131Dcd&-,1,v#*,,>p*Hyu1m,8jve11evNt1e33ve=fl>311>>1d18ek13>Ss-uj",
"pt1ve=-;se,e31-=1a-j111ra13tb11=tp>j81*epj3j33ee1>eD118emj3bj,ju",
"1=,1e$$-=>*ue3ete3-118>1e=-p-,y-*-3c8e,>13,ve==p3>3me,1u13=11>>$",
"uc3>1#=>>=3D1>u3=$>pe1>3e1>1*11>1>1ppt>>=,pda3,t31$v3>=d33$$,%=*",
"ep,1,=11e=pS=>>%p>3j1$,3=,13eu3p,=,=1116-1=ymy8p#3eS->3p11>3t3j3",
"e1c311,>1>ud=>=>t,1p,#,t**3a,33e,,y=a3>3,#19,>$1*31p=1>>>>1h,j33",
"=,Dh*t111ued11u3ujau1#*e,->h$r=-3,vye*$h3*-*+1$>1>1r11e3=3jtjy3,",
">>uf+>1,ebpV3h3>hmpp>,1te1*3>p88<>t1#1ab3==-#p>>ttub>=e3>3=-pdj,",
"e1=y=$=>=%1S=33hvpa8=vyyh<=3ee8t-,33>ee,31,d,y,3eyeja1,ujt-=eve>",
"bDedp3>11>1m=$>hv11*,yy,e-3e1,=#1,3e8e1=>e,j*=*u,ee,1131pp11-13=",
"u318ye>31u131>,py=1,>83,8>1dj*=*-=p3e1e1=1=hh*8S=311,rp>#t1t3>33",
"=u,1,t=*=p111:%py1yv31$31>,Sj$1up1j-3-3>1==Nj,1p->,e>,=11vmap>*h",
"=11c=u==*,13=>>e1>,h1,O=>-=t1->aS>3y**11e*,p*>8t%$1>=#=my,ed13=1",
"--1m1,jD111111h3==,311=3>ta11,==p==v=>>11*=d,$=$%11pp=jm=>18#e1-",
"3%ed1,Nj1h3u3hb1,>r31h11upye11-31,-D3,,1=1,yeh<$$,,ue,ea,=>y=j-3",
"-*hD,1Nh11,Sabuu1ND1ta1eha8ee1=u=-=v%=j11j3d,ba=-*1,>3=331>C31#3",
"a1mWyyhDy>3Kd1eSeaeevmedS11Zu11t=&#V=-31,e1e>jepy=1esppmpaty>,-b",
"a31Kp11matDS=#3Sjymumjp3Ss=v1e,*-1=ed*,=e1,>O$>>yp3jcu1jhtt8-*,1",
"33evy>>3c11e,>3hh3j3h111-y,Jv3>**$**v#>p1*>==#ed$11pcu-131eed,=>",
",3hbm1,1bp,>y,3333ade,11*81Dv>#3#X3=3=#=*3u=,e1p=1pem3#-pvmddu11",
"e33vemp>*3c>tr3eu3hJd1e1*1,C1=#+=1Bc11+>3a1>>eep>>1ct3*j3eafp311",
"jee31bj=#%c>1e,ecepSpe3111aC$&===OcS-u$*h3#1daey311y*p1m13aCc>*=",
"hpu1%1>=3>,>11ya831sa3pp3=1C,=pc=Opm3j,1uy,,yp>31=,1*h333=cch,,u",
"1eev1e,1md13u,cd3e1d13b1p%#v$*JN->3Spt13>,y11>*,,+,N=p,>3$1Djjym",
"v3eLd91vcveySey88t3V*1uep=,U,3jc133vv33331jS11et,e>m1u=1b,3TvzeD",
"vvtjt1=>dyed>$1-1a1m=>pS1$eR*-1,dma3,,<1ce3D1>1ept3bp>,>YSeSe>=c",
"31,11p,=>1*e81,$-e$xu3p>=,dd--h3,ap=$>$3ju1py1*>>3ap1*>>hh13p$,3",
"peer11e,1,#eS1#X1a*3mj=O*eS81>3>$eh$1u11pj11t=>t,1p=1,#$3=13j>3p",
",>,13eu--,#Sy8==e3pS-ct=,>31-=38,1u81=,$=j38e,3,3*-1=1,=e1tde,h3",
"=,#=,e=,8==v=8131,vyO,p$,=ed,#11d8=1=$=,-=1-pt111*>v>*1333ed1p,*",
"1h*>3,1=,,81#,e=1ekt*1t#131d=-hpt1%3#,d-1$1=3#*e-33Sh1-=u883,h1-",
"3au,e,j8**dv$11*13pz1dv-*>=C#-u38=1t1yz#>=1a###-<a>S=e3=1,8f3jde",
"abtsd8yv8$fS$111>>>mepdf;1=vd8hj181ddh-*-=,S*#*=%a=ZdppJypvPm8ea",
"1y1Sy=*ee13t#11e,>1D11,1vj1jd1jped1St==&88=ja-===t=vm6pmmdymJ,,>",
"*-1jy#>1$#>,-#*e1=>d8==3,3*->>1%3=1pc$#**=#ud18e11*eje111jyj1,t-",
"3>1yd*#1#*1=1#33*1Okd=$p11=$>%%=pju1y#=>*$1Jp=11*$#v3>=t*11t=,>*",
">-1118=,+==*-*p3$13K,$,d1>>1u3a3yj331=111=hJ1=>%e,uD,=11#-11311a",
"*,d=,,=%1>-1*3,1uu1t&$=>>>>a,ju3d3mh111>1>uc>1,1e=el1=,p1=3e*111",
",=my1$#>uj*-#31->X*1,>>1=3ctjee-=3Ih-u13>1ed,ejjteph1**p31<3O1**",
">,ev3,3,13-d>,3*1 =e==1e1,*-djm1=1hv=31113pv-1jy8ppm18taue>3=e88",
"1eave8,=,1pd1es=b-1Nh1*uje&-vSa3u1-v=%>,1h1S88eyy1yy8Vzva1eayeye",
"ttjbye*$,>1t,3,=av111=$,dd=8833=NJav1,11p3=v1,1>jp3#1da181ma11*+",
",,hpc1taa>%3v,==33>,*11=O,=pd133hhuvv31em8,1v19ee18,3aued3ta3#==",
"p1h>p1c1e333a=,h,1$1=1d1=putv>-h1btak1->py11Su88d>8my3=ue,1St#1p",
"D>ey*>1==,hpt31bc3=*++a>e-1d33131eeDe>,,1-taep1-t,1h1,$11,,t,$>e",
"j,,Z>1>33+1v33-1=t>-e1p8=*ed#et--=,d1,he1#eS3e,=3>3e311u>tu31-*$",
"ee1D31311#8a$$1e###$131e>*>d%j,13$1881e1e81a,ee3,,p1ej11te8e,>-3",
"-11f>3Se3>-ve1pu*=a1>3=11>=C11O***uV,,u8e,3v-pj11mb1hu,eje8d1,=p",
",->C8ycp1,1Zcem1>=3yteyhpy1C=*#e1*jE113Sd1SK0-e,3t36bp1yv1dK3>1u",
"1t,sD1u8p,,3>31=hytj83>=t11D=+=-1=,C8==vjey81$#1utb3jp31df-nte,=",
"-=,1S=3m3#==,,>,,31e3,>*SO=Ky->==>>p-##=e>#,-#=13-u>8==-*1=DSu>,",
"$#h1t1*1-1e=13,j#>ee8$*=m$#est1>*1ur1$#$1=>e**=#==11-$=-$1-Sv,*u",
"11Bj1e$3tt1>1>>8-*1D13e=3**d8>,,113y=33*##,e=1$X>=1v3,1-*=-V1>,$",
"=+aS=t#&t=O>ae,e1>1L21j==>3Ce##$p1e3,rp##==,,1=*313z11-,,1yV$,y1",
"#Otd1y=*31*=8e*1,=1S,u1>e>py,#=1pej3%=>#e===>,1t,11s1=31>>1v-3mc",
"#=1ded1,==1-,=$,-#>U13,11*$p31ym,1jSe1,=u31=>,y313-s==r*e%=S=-Sa",
"&1,yzf8131e8-18a-e3Uye*,h=%Vvp8Dy,yKv8ee3j1-1=-=,8-y#=11t$1Uu811",
"=C1-t*=ymj,31==331uSu11>Yb1e11#p1dyje1*=et=1>=-=,t-p=>pm1$1Ut>$-",
"td**h$1111#1y-$>=1ta8>13a3,*-#&,$e==,e==-,O,,1=$>3#61uu=>1d88$$h",
"N==-1>yet3=jy$,3>1e-d1=>3=,,y#*,11,1,>1=,=#1p,++1p#>ya*#*hK38=*p",
"=#-3y**#;#&1&#1#*&#&&3-#1----=&$1*=-,-3$#&#e1=oX==1q&y-@*=-=&,-."
};
