/* XPM */
static char *_93bef8f295a404ac76992230eda5b8deQOcPzz3h23kk4H6[] = {
/* columns rows colors chars-per-pixel */
"64 64 170 2 ",
"   c #31271B",
".  c #352C1E",
"X  c #2D2D2A",
"o  c #322D24",
"O  c #353026",
"+  c #3B3225",
"@  c #34322B",
"#  c #3A372D",
"$  c #2B3235",
"%  c #2E3539",
"&  c #333533",
"*  c #3D3B33",
"=  c #30373A",
"-  c #333A3D",
";  c #413726",
":  c #443927",
">  c #463B2A",
",  c #483D2B",
"<  c #413E35",
"1  c #4C402C",
"2  c #52452D",
"3  c #5B4A2E",
"4  c #444035",
"5  c #4A4134",
"6  c #45433C",
"7  c #4A4438",
"8  c #4D483C",
"9  c #524732",
"0  c #564A33",
"q  c #5B4C33",
"w  c #534C3D",
"e  c #5A4E39",
"r  c #5D5036",
"t  c #5D523D",
"y  c #604E33",
"u  c #615035",
"i  c #63553D",
"p  c #6D5A3C",
"a  c #705D3D",
"s  c #75623F",
"d  c #7D653F",
"f  c #373F40",
"g  c #393F42",
"h  c #3B4244",
"j  c #3F4648",
"k  c #3E494D",
"l  c #444441",
"z  c #4B4B45",
"x  c #404748",
"c  c #554E41",
"v  c #565042",
"b  c #5B5444",
"n  c #5C5649",
"m  c #5E594C",
"M  c #424D52",
"N  c #455156",
"B  c #4C5555",
"V  c #46545A",
"C  c #49565C",
"Z  c #4B595E",
"A  c #575752",
"S  c #535B5C",
"D  c #615643",
"F  c #645A45",
"G  c #6B5D44",
"H  c #605748",
"J  c #645C4B",
"K  c #695E49",
"L  c #725F40",
"P  c #645E50",
"I  c #6E6146",
"U  c #6D614C",
"Y  c #746142",
"T  c #7A6644",
"R  c #7D6946",
"E  c #72644B",
"W  c #75684D",
"Q  c #7D6B4A",
"!  c #666152",
"~  c #6B6354",
"^  c #6F6858",
"/  c #726651",
"(  c #756954",
")  c #796B52",
"_  c #70675A",
"`  c #796D59",
"'  c #7F7057",
"]  c #7D715B",
"[  c #4E5B61",
"{  c #515E64",
"}  c #536066",
"|  c #56646B",
" . c #58676E",
".. c #57696F",
"X. c #5A686F",
"o. c #596770",
"O. c #5C6C73",
"+. c #5E6F78",
"@. c #5E7077",
"#. c #5F7078",
"$. c #606F77",
"%. c #606F78",
"&. c #607077",
"*. c #63747C",
"=. c #69777D",
"-. c #66787F",
";. c #68797F",
":. c #806741",
">. c #836C45",
",. c #826D4C",
"<. c #886F48",
"1. c #85704D",
"2. c #8A734C",
"3. c #816E51",
"4. c #857252",
"5. c #8A7653",
"6. c #8D7856",
"7. c #85765B",
"8. c #897759",
"9. c #8E7A5A",
"0. c #917750",
"q. c #917954",
"w. c #937C54",
"e. c #947D56",
"r. c #917D59",
"t. c #907C5B",
"y. c #947F5D",
"u. c #8D7D61",
"i. c #917F61",
"p. c #988157",
"a. c #95805D",
"s. c #94805E",
"d. c #99815A",
"f. c #9B845D",
"g. c #9E875E",
"h. c #968160",
"j. c #978261",
"k. c #9A8563",
"l. c #9F8761",
"z. c #998564",
"x. c #9A8765",
"c. c #9D8865",
"v. c #9E8A68",
"b. c #A08863",
"n. c #A28B65",
"m. c #A68E67",
"M. c #A68F68",
"N. c #A88F68",
"B. c #A89069",
"V. c #667780",
"C. c #677981",
"Z. c #6A7C84",
"A. c #6D7F88",
"S. c #6E8087",
"D. c #6E8189",
"F. c #72848D",
"G. c #78878E",
"H. c #75888F",
"J. c #79888F",
"K. c #748790",
"L. c #768992",
"P. c #798C95",
"I. c #7B8F98",
"U. c #7E929B",
"Y. c #81959E",
"T. c #8297A0",
"R. c #869BA5",
"E. c #899EA7",
"W. c #899FA8",
"Q. c #8BA1AC",
/* pixels */
"J v ! n n w n z J J n ~ n P ! z b b ! n 8 n n z J ! b v v ! P z J n ! ! m ! P A n b m n P P w l c b P ~ J m n l m P n J c J P z ",
"K t.9.R Q a 1.b t.4.5.t.,.5.1.w 5.1.t.T Y 5.1.n k.t.Q R R 5.a.n ,.t.9.t.t.j.a.J ,.,.,.R 1.j.4.b R T Q 5.,.3.3.c t.6.9.6.,.4.t.H ",
"K M.q.6.w.<.g.D q.e.l.g.e.2.5.J g.p.g.2.q.d.2.w g.g.6.2.d.5.d.b q.f.b.n.n.n.B.K 5.2.2.e.6.d.m.b >.5.q.2.:.<.q.D b.n.l.M.e.q.M.F ",
"K k.Q j.a.t.n.J ,.R a.a.5.R t._ k.a.a.w.t.k.5.c 6.a.5.a.t.9.,.J a.j.y.j.x.k.a.~ 6.,.6.k.6.y.c.n 5.1.6.5.T 1.j.n t.t.1.j.t.c.y.J ",
"K 9.,.j.j.t.x.! 6.Y t.9.,.,.t.~ x.5.a.a.a.k.4.w 9.,.6.x.a.x.4.~ j.5.t.t.x.j.x.P 4.1.t.v.4.6.j.P j.5.9.4.R 9.j.P t.,.,.9.,.t.5.c ",
"K 9.1.x.k.j.t.^ x.T 4.5.5.j.t.H 9.,.k.j.a.j.1.b 6.R t.j.9.a.9.~ x.9.k.k.j.t.x.J ,.,.6.v.t.5.t.J t.1.t.5.,.4.9.~ x.t.,.t.6.6.t.c ",
"K j.T 9.j.t.t._ k.9.1.5.t.x.x.P 5.1.j.k.j.x.4.v j.5.5.k.,.5.9.H t.a.9.t.c.v.v.^ ,.5.k.j.j.x.t.J a.1.9.9.9.1.a.n c.c.5.a.k.y.9.b ",
"K n.e.9.j.x.k.D Y L p a p L a 5 p p Y Y Y Y p # Y p p Y p p L > a Y p a L Y Y 7 p p Y Y Y Y Y 5 L a L p L L a r t ] ` ( ( U K 8 ",
"K / E K ` ` K q 6 * * < * * * . * * # * * < *   < * * * * < * X # * < * * * * & 4 * * * < * * & < < * # # * * * 0 8.u.7.W Q 6.b ",
"F 3.3.7.7.4.4.3 - M } } } { } S { { [ Z k { [ B } { } { [ } { Z Z { N } { Z { } } [ } { } } { } N | } [ [ { M % q t.4.Q Y 5.e.K ",
"D 5.1.9.t.1.5.u % o.} Z.C.C.Z.C.*.*.C.*.C Z.*.&.C.C.Z.Z.C.C.*.&.*.C.[ C.C.*.*.Z.C.C.C.C.C.*.C.Z.{ Z.*.*.Z.} o.% y 5.,.4.4.g.e.i ",
"F 5.T Q 1.1.9.u $ *.*.| F.F.S.S.Z.Z.F.F.C A.F.Z.S.F.F.F.A.S.S.S.Z.S.[ S.F.S.S.H.F.F.Z.S.F.Z.F.F.[ H.S.F. .&.*.% u 4.4.6.a.l.g.I ",
"U q.:.4.,.5.9.3 $ *.Z.*.X.P.L.I.I.U.U.U.[ P.P.L.P.U.U.U.P.U.U.U.P.P.[ P.U.U.Y.U.U.U.L.P.U.P.U.U.[ U.U.o.*.Z.C.- q 9.6.4.5.f.e.K ",
"U 2.5.5.6.9.9.q % *.C.F.Z.&.O.&.O.&.&.&.[ o.o.O.O.*.&.O.O.@.O.*.@.o.Z o.o.O.*.*.$.O.O.O.&.&.&.&.[ &.&.C.H.Z.*.= q j.k.,.Q 2.e.K ",
"D >.e.1.5.4.4.u - Z.S.P.T.{ [ &.O.&.O.o.@.O.o.| o.O.o.O.{ o.O.$.o.O.o.| | o.&.O.o.O.o.O.[ O.O.@.#.[ { L.F.S.C.% 3 k.x.6.6.2.e.I ",
"0 2.2.6.a.6.t.u - o.o.O.$.[ O.| C.*.*.&.C.*.*.&.O.&.*.V.{ &.-.*.+.&.*.*.#.*.*.*.*.*.@.*.Z *.C.C. .O.[ P.F.S.C.@ : ` / / ' W G c ",
"4 E i / ` ( ( , - @.&.*.C.{ C.O. .Z.*.C.Z.C.Z.C.#.*.Z.Z.{ C.Z.C.*.*.*.C.*.*.V.Z.C.*.C.&.C C.Z. .O.C.[ U.S.C.*.& 1 ) ( 7.u.8.Q w ",
"< 3.7.7.7.' ) 2 % -.Z.F.U.{ C.C.O. .A.S.S.F.F.Z.C.Z.K.F.[ F.F.S.Z.Z.Z.C.C.Z.F.F.F.S.S.C.[ F. .O.*.C.[ U.F.*.*.= 3 4.Q 6.a.f.w.t ",
"t l.l.j.9.9.j.q % *.C.F.U.{ C.Z.Z.*.O.I.U.P.U.P.L.L.U.U.{ U.Y.P.P.P.U.L.L.I.U.I.U.I.I.I.[ o.O.V.*.C.{ U.L.C.*.$ q 6.6.9.t.g.g.F ",
"K f.w.t.4.t.j.y = *.C.F.U.[ | | | O.Z C.*.*.&.&.&.&.&.*.Z *.*.%.*.*.*.O.O.#.#.&.&.&.*.*.{ *.S.C.*.*.{ T.P.S.*.$ q a.k.y.t.e.q.K ",
"F 2.p.a.t.x.t.u = *.A.F.U.[ O.| | #.*.{ { $.o.| o.| o.@.o.O.O.o.o.O.o.| [ o.| O.| o.&.[ { I.F.Z.C.*.} *.O. .} $ q j.j.j.9.q.>.0 ",
"D 2.q.a.x.a.j.y % *.Z.S.P.[ *.#.C.S.U.{ O. .*.O.&.O.#.*.C.V.#.*.*.C.*.&.{ *.$.C.*.*.o.o.[ I.F.Z.V.C.[ *.O.O.| = u j.j.x.j.d.6.q ",
"t 2.1.4.9.4.t.q % *.Z.F.P.[ *.&.Z.K.U.[ C.o. .Z.C.*.&.V.Z.V.*.C.C.Z.C.C.} Z.*.*.C. .o.&.Z U.L.S.*.-.Z L.F.C.&.% u a.t.t.a.w.e.F ",
"t 0.2.4.4.,.5.y = *.Z.L.U.[ *.*.C.L.I.C *.*.o.O.F.A.C.C.Z.Z.S.S.S.S.A.Z.} F.F.A.o.O.&.O.Z U.F.S.-.&.C P.F.-.@.X > K I F E p W w ",
"b W W ` E I ( 1 - C.F.L.U.{ *.*.S.L.U.[ C.V.*.O.O.P.F.S.F.L.P.P.L.L.P.L.} P.Y.O.O.C.*.&.[ I.A.C.#.@.Z P.S.C.&.@ , W E E E Y 7.b ",
"H 7.7.` ' ` 7.1 - V.A.L.T.{ C.*.S.P.P.[ *.*.C.F.*.*.R.T.U.R.R.Q.T.E.R.R.} E.*.*.S.Z.&.&.[ P.Z.*.O.&.{ U.F.Z.*.= q 9.,.,.6.p.n.K ",
"U n.m.9.x.j.x.q $ &.Z.F.T.{ *.*.C.L.I.Z *.C.S.U.Y.Z.Z.Z.Z.Z.Z.Z.C.Z.C.Z.Z Z.C.P.F.C.#.&.[ P.F.Z.*.&.{ Y.L.Z.*.% q 5.5.1.6.d.d.F ",
"K m.m.k.k.j.v.q $ &.Z.L.U.C &.*.V.F.P.C o.O.&.*.Z.C.[ [ | [ { } [ { [ [ [ C R.I.A.V.&.*.[ Y.P.F.Z.*.[ U.L.S.C.% y 9.t.t.t.2.2.e ",
"K b.n.x.j.k.j.q - C.S.P.U.V +.C.C.Z.P.C  .o.O.&.*.C.Z } [ Z C C C C Z { ..V R.P.A.C.V.C.[ C.&.&.O.O.Z I.F.S.*.$ u 5.9.k.j.q.2.0 ",
"U g.m.t.t.c.5.q - O.O.&.*.Z *.C.*.S.I.[ &.*.C.F.I.Y.[ | V  . .X.X.X. .[ O.V T.I.F.C.Z.C.{ *.O.O.o. .[ I.F.Z.*.% u Q 6.x.t.e.2.D ",
"U b.b.a.6.k.6.y =  .O.o.O.C V.*.*.F.U.{ *.Z.Z.F.Y.R.{ | V F.F.G.F.F.F.C O.[ R.U.K.C.*.C.{ U.H.Z.*.*.[ U.F.C.*.- u 4.9.j.4.q.f.U ",
"w 8.Q 7.) ' ) 1 $ &.C.F.P.[ *.*.C.F.P.{ C.Z.Z.F.U.W.} X.V G.P.P.P.H.H.C O.{ R.U.L.Z.*.*.{ U.L.Z.*.*.[ U.F.C.*.$ q 5.j.t.4.w.d.K ",
"w ' E E ( ( U > $ &.C.L.Y.{ C.C.Z.L.U.[ *.*.Z.K.U.W.} O.C F.G.J.P.H.H.V ..} R.U.F.Z.C.*.{ I.F.Z.&.*.[ U.F.Z.*.$ q 9.j.9.j.e.e.F ",
"U f.5.,.9.9.4.q % *.C.H.U.[ C.C.F.P.T.{ C.*.C.K.Y.R.[ O.C J.P.P.I.P.J.C | { R.Y.F.Z.Z.*.} U.F.C.*.V.Z C.&.&.o.% q 9.j.5.j.f.l.J ",
"K w.e.9.x.9.Q u = *.Z.F.U.[ o.O.&.C.Z.{ C.C.C.F.U.T.C O.C *.*.*.=.*.*.N | { E.T.K.Z.C.*.[ U.F.V.C.*.Z O.o.X. .- q 4.x.9.9.n.g.U ",
"e 2.e.j.k.6.4.u % *.A.F.P.Z X.X.o.O.&.[ C.C.C.S.P.T.V O.{ [ [ [ [ [ [ C | [ F.Z.*.&.O.o.C P.Z.C.C.#.C K.F.C.*.- q 9.x.t.j.n.b.K ",
"0 2.2.a.k.a.t.u % C.S.H.U.[ &.C.Z.F.I.[ C.*.V.Z.P.Q.N { [ Z Z Z Z Z Z [ [ V C.&.O.O.o.| C P.S.V.*.#.C I.L.S.*.% q x.j.j.k.n.n.K ",
"t q.q.6.5.6.4.q $ C.S.L.Y.{ &.-.F.L.I.[ &.#.V.S.U.L.o.Z o.o.O.o.O.o.o.$.o.o.F.U.L.Z.*.&.C P.F.C.*.*.[ Y.F.Z.&.$ q v.j.x.a.N.m.U ",
"U n.g.t.1.1.t.u % *.Z.K.U.{ *.@.C.S.P.[ &.&.C.F.S.&.Y.{ Y.U.T.U.Y.Y.U.I.U.Y.&.F.P.Z.*.*.[ P.P.Z.*.C.{ T.H.Z.*.% 2 u.8.u.7.j.i.K ",
"F j.1.) W W 4.2 & *.Z.S.P.[ #.@.*.A.P.[ *.*.Z.V.o.P.Y.} U.U.U.I.U.Y.U.P.L.U.L.o.C.C.*.C.[ I.L.F.*.*.{ Y.L.F.C.- , ( U U ` ) ( n ",
"w W i K D K F ; o @.*.S.P.C &.*.Z.S.I.Z O.*.*.| C.P.L.} F.F.F.F.F.K.F.S.Z.Z.F.Z. .#.V.*.C U.P.Z.*.*.[ U.L.Z.V.- q ,.Q Q 4.2.2.b ",
"D 6.1.5.4.4.4.q % *.Z.L.P.C *.*.S.L.U.C &.O.| *.C.Z.A.} C.Z.A.Z.Z.C.C.Z.V.*.C.Z.C.| O.V.[ I.L.Z.&.*.[ I.L.Z.*.% q 9.,.5.,.1.2.t ",
"t e.p.k.j.j.j.u - O.*.*.S.Z C.*.Z.H.I.Z &. .*.V.C.*.Z.} *.C.Z.C.C.*.C.Z.*.*.&.*.*.*.| *.{ U.K.Z.&.*.[ P.D.Z.*.% q j.9.j.9.2.2.D ",
"9 1.q.t.j.j.j.y % [ } | O.{ C.C.Z.F.U.{ { &.O.O.*.o.O.[ o.O.&.O.&.O.*.&.&.O.o.O.o.@.O.{ [ K.V.O.O.&.[ U.F.S.*.= u t.x.k.j.p.2.D ",
"i 2.q.t.j.k.j.q $ O.C.F.P.{ *.*.C.K.F.{  .O.| | o.| | } | O.O.o. .O.O.{ O.| .. .| | O.o.o.} o.{ } } [ U.F.Z.*.- u t.j.5.t.q.w.K ",
"K d.d.t.t.a.t.q $ *.Z.L.Y.{ *.*.C.C.o.[ L.L.K.P.K.F.K.F.F.P.K.F.F.P.P.[ P.L.F.F.K.L.L.P.L.} *.*.*.&.{ U.S.C.*.= y x.9.6.j.d.n.F ",
"i p.g.a.6.1.4.q % *.*.F.U.[ C.C.*.| Z.[ S.K.K.P.L.P.F.S.A.K.F.F.K.P.L.[ L.P.S.Z.D.L.K.K.F.C. .*.Z.C.{ Y.L.Z.C.% q 7.8.8.u.k.t.9 ",
"e 6.y.i.9.Q 3.2 & *.*.F.U.[ Z.&.| *.Z.C *.Z.C.Z.F.Z.V.C.C.V.C.C.Z.Z.Z.{ A.F.C.&.Z.S.Z.Z.Z.V.*.} *.C.{ L.Z.;.*.- > ~ / ( / G I < ",
"w K / ] _ U / ; O *.Z.F.I.[ *.| *.Z.C.C *.&.*.C.-.*.*.*.C.C.*.&.C.C.V.{ Z.C.&.O.*.C.*.C.*.*.C.*.| *.[ o. . . .- q 8.8.t.8.T ,.9 ",
"K 2.1.8.8.9.u.2 $ C.S.F.P.[ { &.*.*.&.Z *.O.&.O.&.&.O.o.O.*.&.O.&.&.O.{ &.O.&.O.O.&.&.*.O.&.*.*.&.{ [ P.F.C.*.- u 4.4.9.4.q.>.t ",
"K e.<.,.1.x.j.3 % *.Z.L.F.| } } o.X.X.}  .| | | O.o.| { } [ } | O.| | } | | o.} } } } } X.X.X.| o.} } P.L.C.C.= q 5.6.9.5.e.1.K ",
"F q.e.1.,.t.t.3 - C.Z.S.X.P.P.[ L.L.H.L.F.F.L.L.P.P.L.F.F.Z F.K.P.L.L.F.L.P.P.F.F.F.F.[ L.L.L.L.K.S.F.X.S.C.*.$ 3 9.6.4.5.<.q./ ",
"U g.g.t.5.5.4.y = C.C.| Z.K.P.[ L.L.F.L.F.F.P.L.P.L.L.L.F.[ F.F.L.L.F.F.L.L.P.F.S.L.F.C L.P.H.F.H.F.L.Z.| Z.*.$ q 9.4.Q Q d 5.K ",
"D d.l.t.6.1.1.u % &.| C.Z.Z.F.{ S.Z.C.Z.A.Z.A.S.F.Z.Z.S.Z.[ Z.C.C.Z.Z.Z.F.S.Z.A.-.C.S.C Z.S.C.C.Z.S.S.F.*.| &.$ u 5.1.9.4.>.5.D ",
"F e.e.T R Q t.q $ [ o.&.O.&.*.[ *.&.&.&.O.&.O.*.*.#.O.&.&.Z &.o.o.#.&.O.&.*.&.&.X.O.&.V O.&.O.O.&.*.#.*.&.o.[ = q 6.8.9.t.4.5.D ",
"F p.2.T 8.i.t.q = g g - f j j h h h j j h h h x j h - h j h g - - h j g h h h j # h j - - - h h * h h j h h - - q K _ ( K I U F ",
"w I K U _ ` ` 5 0 0 e 0 2 q e 0 # q q e q 0 0 q # 0 0 0 q 0 q 0 O q q q q 0 0 q o 0 q q 0 q 0 0 + 9 0 0 q q 0 e u 8.j.9.4.9.j.K ",
"c 4.8.9.9.8.j.8.t 5.,.5.4.4.Q 5.b 8.t.5.5.9.,.Q J t.t.9.4.,.5.4.w 4.Q T 9.,.,.9.7 Q 9.5.9.5.Q ,.n 8.9.5.,.Q 5.6.~ j.j.j.6.,.k.K ",
"v a.9.a.a.1.k.c.J 9.1.5.6.t.,.t.J t.9.j.x.9.,.,.J x.j.k.k.j.t.x.J t.9.5.j.t.,.9.b 1.k.a.k.k.,.5.H a.c.9.5.4.Q x._ 9.j.k.x.,.t.K ",
"w 6.5.,.9.,.4.j.~ a.9.Q 4.t.5.j.! a.5.5.v.t.1.,.J x.j.k.t.t.4.x.~ 6.x.t.k.t.R 9.w 1.k.j.a.j.1.x.J t.5.1.5.9.Y j.~ j.t.j.j.4.9.K ",
"H 9.c.5.9.Q 5.9.n k.8.T 5.5.1.t.J x.t.6.x.9.,.5.~ t.j.x.t.9.a.j.! Q t.t.x.4.6.6.c 4.x.t.t.a.9.x.^ t.Q 1.t.a.s ,.J v.t.j.j.Q a.K ",
"H n.e.t.M.e.c.k.n t.,.d 1.w.6.,.b M.e.6.f.2.<.5.~ n.n.n.c.l.f.e.n 6.5.f.5.5.f.e.w 2.f.w.5.f.p.l.~ q.>.q.f.l.5.2.H n.5.p.e.2.n.K ",
"J n.q.q.l.l.g.n.n 6.5.2.5.2.1.2.D g.n.6.2.2.2.5.U m.n.b.b.f.b.5.H l.q.q.2.2.g.m.D 2.p.2.>.g.e.d.b 6.q.6.g.d.q.d.n e.:.2.2.e.m.K ",
"c ) E i E E W E 7 G K E ) E i u 7 i ) E G G G K m ( ` E ) ) E E 8 ) ) i i i ) ) c I E q G ( G G 8 E W G ' G E W w G q G G ) G K "
};
