/* XPM */
static char *result[] = {
/* columns rows colors chars-per-pixel */
"64 64 58 1 ",
"  c #473B39",
". c #4A3D3B",
"X c #4E413E",
"o c #50423F",
"O c #71693F",
"+ c #524441",
"@ c #574943",
"# c #5E574C",
"$ c #645B4F",
"% c #685E4E",
"& c #665D52",
"* c #695F52",
"= c #676056",
"- c #6C6255",
"; c #6E655A",
": c #6E685F",
"> c #716556",
", c #71665A",
"< c #746A5D",
"1 c #796D5E",
"2 c #7C705E",
"3 c #6F6A61",
"4 c #766D61",
"5 c #796E62",
"6 c #777066",
"7 c #7C7265",
"8 c #777168",
"9 c #7E7569",
"0 c #7F786E",
"q c #817566",
"w c #887764",
"e c #837867",
"r c #817669",
"t c #847A6C",
"y c #897D6E",
"u c #867D71",
"i c #897E71",
"p c #CAAC00",
"a c #DFBD00",
"s c #F5DB38",
"d c #FFFF3A",
"f c #8C806F",
"g c #878076",
"h c #8C8273",
"j c #8D8579",
"k c #8F887D",
"l c #928575",
"z c #958977",
"x c #928779",
"c c #958A7B",
"v c #998C7B",
"b c #9E917F",
"n c #A0927F",
"m c #9D9383",
"M c #999288",
"N c #A29483",
"B c #A89988",
"V c #ADA18F",
/* pixels */
"7uu48g9;9701t9775;4t4<7t9tqq77%<7r5757;7q>-r5qrr54rr&4q&4qqq;qrq",
"7<74tt96877t9;:f445t95<1u9q147>,4i71t15<5,qq-<r4q8iq&qq$:qqi4qqr",
"55<tyt74671f><>99q<y<97<712w<r979jt7i8te,-ii,qq;qrur4qq,;44xr;48",
"797xfy;1276f->624t,vtt9j1qyhw77thjt7qrqiqqii4qq4:4qyqqruqq4krqri",
"tt7ir412tt7t97117u4i789ry79th77<et5iq6,rtiqirrrr44rkrqrriuqiiqtr",
"8<579;;1<1;099eerr<55q47r<5t15t4,5qiqr548q5ir,4tr4qjr4qrqr:8q:4;",
"ti947-:51<9c74t94*4tt74qq557;774555ttr54,5yit95rrq=ir4<ur8;;q;:,",
"rt581<77t:tx:4<:t49i5,5q<577qt7t4<5497704q5tirrt-rrx4<ruq84qrrur",
"q5i7855574ri<534r55u5*5t,,8y799955e<u9475*5e54,4:rqt<45343qtqurq",
"<<Mu,r7779et55r9uiir5;,e754u;91175itr<;u9<5,&q;4q<4urrrr:ruqtrqq",
"55ti*5559gtl9u95ihtt557wt7>91tqq55w9=7ugq<<<*t44rrti:4rr3r:qtiu4",
"t54t4,344:7z4r8uiutq<itty6,7t979457q4re57q5y5t5rrrruu55rur4,rir4",
"iMqtt855959j3=5uiq5<1tt5919t72<-559rqq744q8i,4,t4rrq8qq5tt5q4qr:",
"t97qtq458r7r546ue3q54r95q47yf><:<<u9r7r43q4it,ri:rq85rt<=rqrr4rr",
"<t555r,,<t5993;te5eh97;96<4xg;7tt8i491918<4ii5qtq4:r4q<rriiut:;u",
",q5i<t<3,459<349755u75&141<t7<6tx5rr,;77q<5w44qq==q4<-<it4quqr:q",
"155l95icq448q8uq::4q88:q4ty977<<r,qi:<<5q;<u4;<;;q4rr:ggq,qq&rq4",
"9,et75jiqurrquiqq4rqquqqttt97619qq,vr84q<q4rru4;;qqrrqriq,qr;g4q",
"4,iv57jtqqqxuiruqjkqru4qyyqet7<0,q,y:,uq5uqt4ji<q;4q3r4rrr4xq8=q",
"t7hVttucr<qvuqrxqrrrigrtl77zt479,-;yq4qqqrqt4irtr:4ritrirrrr:q4i",
"iq5mtq7iurci<=riutjrxitrlt<l7r5,qq,ri,q<rq4<&;44rrrgirquurtqq*qq",
"79rit549i8rr54ruuririqqq1t1vi94<*-,,i*<tq-4<:;ri-qrrgr4qqqrwrq:,",
"59uix848iu84t5r8rruur44q<q7cl4>7*$q<q;=,;qr:4rqt;qrrxr=4tiiiurqq",
"rrririu4:ri4trrrrructqr4,55l7<>*<qkiqq=<quq44rrtq:rirq,irriir8q4",
"itr78ii<*:i44r4rirrjrrqq58ui,><1<&ic4t;,uq=5uurtq5qr;rqgqqyii4,4",
"ttt7:54:r444q<turqrturrur:ri5,ti;&yiri<qtt5qtt<r8<4q:urrr:iiiqqr",
"5rriqr5qiirruqiyqrqtqqiqt;,i,,vl4<rxutqq45tqq,;5q&qg:u54r=4xiiri",
"iqqNtqqiiirrxrrqqrqi;qrrt;qB57iiqr4ii4qqqqiiqqrt<r5iqr;qgqrMiirc",
"liritq,4iiriq;q<qtqi44rjq;rB;4q5iitq5584irrcq44rrrrir4q<Mjqjr4<i",
"9988qt54<q,rqq4;qr,grru4<5it44tq5ut4;4:rir8trq:45rutq;,4tuqry,qq",
"trqr5qr4q<*riq*$4t;rxi<&;rxq51OO%Ot>5uq5riqqr<<r4qt4q4-;r,qri<qr",
"5457qrr4<q;irq<<rqui4ir<54rq<%ssss%rr,5;<tqqq5r4q;<q;qq:rqrir4ur",
"<5*45e45q<<y<q79q5it*5y-5<ry5OsssspO<;<65<51tr557,4h5:7999qy7t5<",
"8i,5q55451wq-4e<7eyt,5e=797yOdddddpO=1y15,75q-<r599hu5<<tqwq5y7<",
"9it5q5iq,,yl:77;7rti7th1,4<hOdddddOO6ef-4,ri;,*<6t4x<r9471qy7iir",
"uirtiqtiq,yx;777444lttyy27<hOdddddOOfy2>545i,*<<:y1zyttvetfnjq9y",
"5t1zt<,re7rt-699546x5747hi5uOdddddOOt1>>wq4iu4;4<t<hh9thhytjc161",
",47yt*47;-452-,t644u9<<959<4OddddaOOg->,,,*ty5qr77>qir877fty7191",
"717ti<*8*<7<6=99,8&iy<;t85:-OddddasOt-:2;;8ct<5q;;;h94<r,77r141,",
"5<775946&<<<2;f9;qqv5:5y7447OddddadO7<76q4ym544495tv7<55-177976y",
">5y155<:7417>967rt5t,,,5444i%adddadO775474ri4558r4qi7<5y71t9,777",
"5<he5>*4ti,1;9624$35555537iqOaaaaadO4r7957ri5riirrtu7;,t8788$7;,",
"45rh9575791f229,q@4r3<5r58,1OssssaaO<77759ui4qiwriel7qeyt967<qeq",
"79yhrq5<47ye69e1i4qit5<rir>1OssssaaO<:459u7xqrrrt5ttqlyhy6eytqtt",
"9tigtq<*467e571<yh5783,5yt1rOssssaaO7579u94iq5q4iiq*7yy777jt57,=",
"77utiqruy4:9h7:<9r45,q5,*5<tOssssaOhh97tiq57yqrqe5q59y99y9ty9-<<",
"t7t4t5i79999y<4u58,557t7<tttyOOaaaOyi714tt75lrqri4qlr94tt47le=7e",
"x4rt:47<14ytt95hh9<,**t5r<qtqqq%OO9cr45475tiqi75q5qu76;7755t1;1t",
"g47z16<98-9f9917<r44qqtr,,ty*rr45,qy55ir8*wl9r44q49r978t5rtq84<;",
"9e7z99967-9y;;79;*;;4rrr4,4y;i5qr*qrqqr8wqqy4rqq55t7ri95rqqe55<9",
"177y<9xt911ft8yt;<uq4r,5qq,iq5&,;,ri55trr5ti<tuq9ii9ut5riqqi55<u",
"111z9wge977jh9h75:qrrrturywi<,-rq,uBq9uiy5izwqq50t90it7tx7ivq49r",
"5t4yx7t9t519497,utruqr5:rqqiq*<4545iq4,iirtqq>-qt0i9iuq7yy2hr954",
"<<17x<9j9-<<67155rqrr54:i&,mw......y5&*4r4-51-,594r5q4<<>7<cxu44",
";=u7t6>71791796f-5tyq;,,i,;+++oX.+++o;;;q45r,,<-3,qq5,<<>2<lg5,t",
"77xh29;7et74764q<:qi8qr4u:.++XXX..o+.or;*-5r<5,&445i5575,11l715;",
"<=yj<t;>t<=2et6q54qm6qu,<4q@+ ..@.+oXrr*;:<55q<,979f762257tl>5t7",
"-$9y6t<<97>,9t;75,8x4rq3r4tyq..++@+q:44;q<<<55qe197w7<774<7h17hy",
"%<6y9f22<<717,;24-5M8r4qq;;tqqri5qyzr554u97<45rq29<y1<9<9;:l11xu",
"-72effq777ee17qe4w8Mtw,5u,,iirwvt5tviqrrri555<1<292e=<77t;7mt777",
"1f72f;<ehg297<<9rqrxrqq:Miqrqq*rqyrirq;:ee<5<<1<1t1t,<fh6;7b91-<",
"ef;>0;2667-7t1;1;qruq<4qurq;<=;<;r<<qq<<11&557,;19;0990<27fe7;>g",
"j<<676eet9,ye>574qr<iq,qq><4q*,<qq<qq<q<5<-7t5%%7t-4ft:-:fv99:;f",
"3%29w,<%2%>q>>7=,>>-;q,$qq,qq<-=q;,,q<q;*>>q7<%$<,6e>e1=>:1,>2<#"
};
