/* XPM */
static char *result[] = {
/* columns rows colors chars-per-pixel */
"64 64 57 1 ",
"  c #473B39",
". c #4B3E3B",
"X c #4E413E",
"o c #50423F",
"O c #71693F",
"+ c #524441",
"@ c #574943",
"# c #5A5146",
"$ c #5E574C",
"% c #645B4F",
"& c #685E4E",
"* c #665D52",
"= c #695F52",
"- c #676056",
"; c #6C6255",
": c #6E655A",
"> c #6E685F",
", c #716556",
"< c #71665A",
"1 c #746A5D",
"2 c #796D5E",
"3 c #7D705E",
"4 c #6F6A61",
"5 c #766D61",
"6 c #796E62",
"7 c #777066",
"8 c #7C7265",
"9 c #777168",
"0 c #7E7569",
"q c #7F786E",
"w c #817566",
"e c #887764",
"r c #837867",
"t c #817669",
"y c #847A6C",
"u c #897D6E",
"i c #867D71",
"p c #897E71",
"a c #DFBD00",
"s c #F5DB38",
"d c #FFFF3A",
"f c #8C806F",
"g c #878076",
"h c #8C8273",
"j c #8D8579",
"k c #8F887D",
"l c #928575",
"z c #958977",
"x c #928779",
"c c #958A7B",
"v c #998C7B",
"b c #A0927F",
"n c #9D9383",
"m c #999288",
"M c #A29483",
"N c #A89988",
"B c #ADA18F",
/* pixels */
"8ii50i0:09q2r0808:5u518yqy8r6w=18y6868:6e;;t5wtt65tt*1w*5ttw:ttw",
"8165yyq5078q0,>f157rq522y8r218,,5p66y66651ww;5t5w6pt=ww%5twu<wtt",
"565yuy75282h,1,0081u2881618e1yt80hy8i6yy<<pp<ww:ttut<wt<;55xw:59",
"808xhu,2782h;>325y<vyy8j2rufy88thjy8twwpt6pp5ww5466uwttiwt5xywtp",
"yy8h0523yy8q08226i1p068tuw8yh881ty6pw9<ttpwp0wtt69tcttttpitpp6it",
"01580::222:y00rrw0666t58t<5y26r5<6wpwt658w6pt<5yt1tpt5wttt>6655:",
"tp058;15117v77rq5:5yy850t668<885666yyt5616ypiw6wt9:pt55it9>:6:5:",
"ti582188y>yx111>y50p6<6w168wty8y6<65088q5w6yptwy=ttx55ttt65tttit",
"t6p0066685yp<555y68i6=6t<:0u808066t1i8586=6y66:w:t6i5854556i6ptw",
"16ci<t608qty86q8yiut6:<t825i:q22w6pyt1:iq>1,*8:4w59y88tt>9uwpyw6",
"66yp=5668jyl0q85pjyy668yt8<01y8r56e8:6upw<11;y64ttip55tt595wypp6",
"t81y1>451<8x5q0ppyyy1puei9<8tr8y568w5tt96wwu6y6ttttyy65tit6<tpt5",
"pctiy966058j>:5ipw6<6ry6y10y38<;820q8t816w8p<5<y6tt6t6twyy6w69t4",
"i08wyw569y8q655iy<866t06r18uu<1>21y0y8r8485py:tp>t6w9ty5=t8yt5tt",
"1y666t4<<i88844ty6rh88:0556lg:8yy8p28286w55pp6wy556t565ttpppy4:i",
"<w6h1y1<<580<550066i86*5521y855ux5qt:<78w<6y55ww>:65<=5py6tp6t<w",
"266h86pvw5595wit1>5t595t5yy888:1u<6u5566w<1i6:<:>wwti:pp66ww=tw6",
"0<tu86jptiti9ipw66ttwiw5yyyy05206w2v0696566y0i9<:56tt9tiw>5u>i1w",
"5<pv68jiw6wxipiuwxkwyp5tuurr081q521u:1pw6iwi6ji15:w65t5tt56xw9;t",
"u6hByyicu<wvpwtpttttpptyl88cy88q1,,p156w6t6y5ityt55tyiyptitt665p",
"u06vu86jitcp>:tjptjtxpitlu<h8t6:1w<tp161t665*:55tutiiiwpptyt5<ww",
"00tjy550p9tt659iitptiw6w2r3vhq51,,<<p=6yw<555:0p;wwiit>wwwttu51:",
"60ipx959pi55twt9ttipt56w<r8ch5,8=%w5w5=<:wt<6t8y<wttxt=6tpppptw6",
"w0tptpy5>tp5ttttttivtww6<82z8<,=56cp68=5wuw55ttr66titw:pttppy9w6",
"pywwwpi>:>p56t6tgtipytww96ip<,114*px5y:<iw:6pyty868y<ywptwupp4<5",
"iyy6>65>t5656wyyt9wuttyyt>tp3<yh<%yl0p66yy66yy68855w<i8tt<uypw5y",
"6wth6t68pp9wy6puwtwuwwj6y::p<<cl650lyy8r66u686<66=6k4i65t:6mpptp",
"h0wMuwwpppttxtttwtwp:ttty<wN68ph6t0pp08ww6plw8yt6t8p6t<6p98Mppwn",
"hptpyw55pptuw;w<wywp51yx8:yN,18OOOO86696ptwc666tyttpt5w5mxtpw55p",
"0w788y655w<twww;6t>pttt556uuOOOssssO<5<0py9yu8<55tiyw;55ipwtu<5w",
"ytwt88t5w1=upw=%6y>yxp1*<tpOssssssssOf86ui66t55t66y5w5::t<wtp5tt",
"6568wtt51w;ptt<5ttyp5pt565,ssssssaaaa&6<1ptww6t6w<564w5<twtpt6yt",
"46:46y16e<1f288066hr*6y:8OsssssaaaaaaaO81186yr888:5h5>8800ru8y6<",
"6y<5w66152e8:2026ypy<6y;OssssaaaaaaaaaaO8<81t:<t280ji821ywew6i82",
"tpy6w6pt1<ul:88:wtiu8uh2OsssaaaaaaaOaaaaO<8u:,=17u7l1t0588wu8ppt",
"iheuuwypr:fl>788555ltruuOdssaaaaaaaaOaaaO16l<=11:u1zuyycrrubl80u",
"6r8ly<<0t88r,77r656x885OdddaaaaaaaaaOaaaOe1uy5<41q1hhqipluyxc672",
"<58pu=50::662;10955i811OdddaaaaaaaaaOaaa&5,yuwwt88,rit868gri85r2",
"818ri1=9:<858;0q<8*pu1:OddaaaaaaaaaaOaaO<:wxy580:::h86<y,78y1511",
"62886057*11<1,f0=wwv6>5uOdaaaaaaaaaOsaaO65ym655:q2rv8186:288888y",
"<6u1221<7228,878yi6y<:<5OdaaaOaaaaOsaaO585yp5w58t5wp8<6y8200<889",
"61hrw:=5yh<2:q726%<966661&OaaaOOOsaaaaO866tp5wpuytyi8<<y8890*8<<",
"56th0606802u278,9#<y456t85OaaaaaaaaaaO886qip6wpttuypwryuy0581twr",
"80uhtw6129uu30u2p6wpy8<ypt,OaaaaaaaOO>568p6xetttu6yuwhfhu9ruttrr",
"yyipyw<:578r6821uh6895<6uu2tOOaaaOOh8580yt5pw6w5iuw=8uu5w8hu88,;",
"85iip8tiu5>8h8>10056<66<*8<yu8O&Oiyhh00tpt6wp6wtt6t60uy0yqry8:2<",
"y9i5r8p80000u<5g50<818i61ryyh55i7hyuh626iy86ltwwu6wpy85yy88jy;8y",
"c5yr<19118iur05hh81<==u6y18u8r6w8r8ct66585yiyuw5w6wp95:8822q2:1y",
"i82z25580-8h88281t61t6iw<<tu=yy655wu76pt6;el9t65w60t088t5yyw65<>",
"t08cq8098-ry>:8t=*:<8w8t6<5u<p56w=wtt8t8tt6u6tww66y8tp09ttwy651t",
"188u18zq052hq8uy45iw785666<z68=,<:tp66twt6tp2uiw0pp0it6tptwp861y",
"222zrrgu068zpqh85<wyttuyiywl2<=tw,iNw8txuwxve1t60y0qhy8ehwiv850y",
"8y8rc8u8r6885885iytiwt54tw6v1=66616lw55ppwttw,=6i0j8iit8uf2jyq51",
"2<56l18j0;1168556t8tw65<p*5vt2....6e5**5w5:62=18q5t6w511,w<cxy56",
":;i8y9:828y1808u:6ttw=<4x::+@@...X++o>=<w56t<<<=4<6w5<<6,32lh5<y",
"88kf30:8yy85855t5:8c0tt5t<5+...+.oo+.tt<==6t66<*55wp66w1:21l826:",
"1-uz1y,,y<-2yr8r656n70p55<t@o .X+++oXyt=:4166t1108rf882868rl:6r8",
";%0y9r1>88,10r:7610c6t84twty6<.+++i0<45:t<<166we688r8188518h28hh",
"&17uqf8211828<:85=5n6w68w;:uwwup66pxt885i06166yw881f21q:0:1l12xu",
",72rff3380rr26rr5w0nyt<6p<1pptepy6uvpwwttp66612<2r2r&188q:8ny889",
"2h82q1,fhh508<2tw6yxtw65mp6tw5;twpeytw<<ye<8112<2y2y21yh7,0nr2;2",
"rf1,q,0387;8r2:25wtiw56wit6<5=;w;t1<6t5512=668<:60;q7ry528f08::i",
"j11187yry81ue:5r66t6uw15w266t<:6w6www16561:8y8=*8r:1rf>;,fv0r::f",
"1=20r1,&3;,3::8=<,;;:w1%w6<w5<<;w:<125w:&,,r8<&%2<5y,r2->>3,,71$"
};
