/* XPM */
static char *result[] = {
/* columns rows colors chars-per-pixel */
"64 64 56 1 ",
"  c #473B39",
". c #4B3E3B",
"X c #4E413E",
"o c #50423F",
"O c #71693F",
"+ c #524441",
"@ c #5A5146",
"# c #5E574C",
"$ c #645B4F",
"% c #685E4E",
"& c #665D52",
"* c #695F52",
"= c #676056",
"- c #6C6255",
"; c #6E655A",
": c #6E685F",
"> c #716556",
", c #71665A",
"< c #746A5D",
"1 c #796D5E",
"2 c #7D705E",
"3 c #6F6A61",
"4 c #766D61",
"5 c #796E62",
"6 c #777066",
"7 c #7C7265",
"8 c #777168",
"9 c #7E7569",
"0 c #7F786E",
"q c #817566",
"w c #887764",
"e c #837867",
"r c #817669",
"t c #847A6C",
"y c #897D6E",
"u c #867D71",
"i c #897E71",
"p c #DFBD00",
"a c #F5DB38",
"s c #FFFF3A",
"d c #8C806F",
"f c #878076",
"g c #8C8273",
"h c #8D8579",
"j c #8F887D",
"k c #928575",
"l c #958977",
"z c #928779",
"x c #958A7B",
"c c #998C7B",
"v c #9E917F",
"b c #A0927F",
"n c #9D9383",
"m c #999288",
"M c #A89988",
"N c #ADA18F",
/* pixels */
"7uu49u9;9901t9795;4t<<7ttt9q77*<7t4757;7r>-r1qqr5<rr&4q&qqrq-rrq",
"7<540t0<977t9>:d<46t07<<y7q1<7>>4i75t1554,qq-<u<8qiq*qq$:qri4qrq",
"454tyt74<7<d,,,79r<i<97<212e5rq79gt7i5tr<>ii,qq-rrtw,qr,-44zr-48",
"797zgy;2676d>,624t,ltt9g1qykq77rght7rqqir5ii4qq8:4qiqrrtqq4htqri",
"tt7g9412tt6092115i<i957ry77th77<rt5iq5,rriqi9qrr84rxrqqqiuqii4ir",
"9<479;;<<1>099teq9155r47r,4t<1t5,5qi9r545q4ir;4yr4rhr4qurq:qq:8;",
"ri947-<4<<7x71994;4tt719r747,774555tur44<quiu75rrq=ir4:ur8;;8;,;",
"ru471<77t<dz:6<:t49i5,5r<57qet7t5,54798t<q1uirqt&rrh44rt884qrrir",
"q5i9775474ty<444r57u5*1r<,9y790e55r<u9475;5e5548;qqu,84<44qu4irq",
"<<mt;r5970rt57t8tiur5;<r4<4t;t,<q5krr<;u9,<,*5*4844uqqrr:8yrirq5",
"54ti*4559gtk9u84ihtt557tt7>9<y7q45e7;5ugq<<1*t44rurf<4rr4q:quii5",
"r71t<:34<:7z499igtte<itwu6<9q99t<17q4rr47q5t5t5rrrriy4<rir4,rir4",
"gm7tt945949h:;4ugq5,5tt5t<rt71<-779t9q745q5i,4,r5rr8q5qqru4q4q8:",
"rr7rrq475r79444ur<754q97q47yd><;<,u9r7e7374iu;qz;r5q8uu:*rqtq5rr",
"<t555r3,<u8973:rr5tgq7;974<zf;7tt7i<7<9<744iu5qt444r44<rriiiu:;u",
"<q5g<t<,,459<44r755u55&<4<<t7<6yx49t,,77q,5y,4qr;-q4<-<iy4qi4q<q",
"117g75ic8q48q5ir<:5q88,r4ty795,<r>qi,444q,,y6;4;:qqru:uz,qqr&tqq",
"9;ry75hiqu8u8uiq4qrqqu4qttt076<9qqqir54q,85trr6;;44rr4ruq;4t:u,q",
"<,yl57hurqqztiutqijqruqqyyqee7:e,q<y:<uqqy5i5ii4q;q44r4rq44zq4*r",
"y7hNttuzw:qciqriqurrhirtk79lt770,-,i4<qq4rqr6irrq:qruurirurt4q4i",
"t77ctq5gurxi:=ritufriiurky<g9r5,<q,wi,54tq4<&*64rrruuuquirrr4*4r",
"r9rht549i8qrq4ruuririr8q1e1cg94,,,,,i-4tq;4<4;ri-qqufr4qqqrryq<<",
"5quiz848iu58r5r8qriir,q4,e7xg4>7*$q4q;-,;qr<4rqt,qrrhr*4tiiiurq4",
"r99iriu4:ri4rrrrrrixtqqq,71k7<>*45jiqq*4qt844rquq:qurq,irriitr4q",
"irrq8ii<=:i48r4rfrrhuqqq4qui,><<,&iz<t,,iq*5iurrq8qt;rqiqqiii5,4",
"uur5;64<r4844qtyrqrtrqurr:ri1<tg,&yk9i55tr55tu4q8<<q:i8rr:iiiq5u",
"5qtkqq55ii8qu4iyrr8yqqiqt;;i;,cz45qktr5r45tqq4;5q$qi:tq4r-8iiiri",
"g7qnyqqiiirrzrwqqwqi,8utt;qM5OOO%Oqyg9qqqqiiqqqr4q4iqu,4fqqmiiwc",
"kitirq44iyriq;q<quqiq:uiq;wMOaaaaaOO5585irrx545rrrrir4q5mhrhr44i",
"97585u544q,rq54;4r:iuqw4<4yOaaaaaaaaO4:rir8utq,44rtuq;,4uuqry;4q",
"trqr7qr4q<*wiq*&4t:tii4*,w%aaaaaaaaaaO55tiqqt,<r4qu4q4-;q:qri4rr",
"5557qrr4<q;itr<<rqti4ir:4%aaaaaaasaaaa%,,tqrr5r4q,,q:5q,rqwir4uq",
"45-<5r<5q<<d<q2075gt&5y-OaaaaaaasssaappO<471tt777;<g4;7999qy7t5;",
"5i,4q57<51wq;<0<7ryt,5t-OaaapaassssspppO7;7<9-,t<99ky7<<t9qq2y94",
"9uu5r5iq,,yg;77>5rty7tgOaaapaassssssapppO,7y;>-<6d6z<t9<71qy9iyt",
"ugtwtqtgq>dk;997454kttyOaaapassssssaapppO15k,-,,;d<lyttxeydbhqqt",
"7t7kt,,9rq9t;679545z765OaaapssssssaaaappOw<yu5,3;9<gg0tggytzx76<",
";<7dt;49;-451;,e844iq<,OaaaOsssssaapaapp%4-ty5qr77>qut759ytu2<e<",
"947ti,*8;,7<7=99,7&iy<;tOasOpsssaaaaaapO,,7xy,q7<;-g9<<0>77t<51,",
"<<275944*<<,<>d9,7qc5:4yOsssapsaaapaaapO54un544307tl7,77;<27977u",
",7y115<;7<<2>067ru5r,;,46OssssapppaaaaO274uf4755r4ri7<5y9<99,776",
"7,ge7--4td<1;9714$,55557:6OssaaaaaaaaO29<7ry5qiitrtt7,,t9789&9,>",
"<7qg959479<y267,5@3q345r76>%aaaaaaaa%q7559tg5qirqitk7qeyt0<7,rqe",
"79ygrr5<67yy29y<i4qzu8,rdw>1OOOaaaOO4,457u7zqqrrt5tt7kygt7eytqet",
"ttugtr,;646e77<<yg575<,5yd<qq9q%OOtg7479t94iq5q5itq,7yy597hy77>-",
"66uti7ety4:9g7<<99<5,95,$7,ty7q9uutgg99rgr5qi5qrr5q59tt9y7ty9-<,",
"t7t4y7g6e999t<<f49;747y5<tttg44u7gryi714ut95ltqqt5qit9<t067ke-7y",
"z4rt;<7,,7ytt94gg9<<*&y4e<7y995q7rrxr55554ttetq1r5qi76;7714t<;<t",
"f12l<6<79=9d99<74r84q7uq,,ty*rr55,qy85ur5*tk8r54r5qq995r5ttr74,;",
"q09z07977=ey;;9e***,7r5r5,4y,i55r-qtr5rqqqqy5rrq55t9ri95rrrr54<r",
"1q7y<9ze9<<gt8tt,4tq4945q5,i5q&<;;riq5urr5qi<yiq7hi9ir5eirrt74<y",
"111kqtdt977lg9g75,qtrrturwqc<,-qq>tMq5riy5kcw5q59r90it7tgqic947t",
"5t7yz7t9t719497<utrirq4,rq5c<*445<5iq43iiqtqq>*5t9h9uur5yd2gt944",
"<,<7z,9h9-<<47444r8rq643i&4nw1....qy5**4r4;51-<5r4r574<<>7<czt45",
";-y6t6>9<qr<797i;4qqq;;,z;*r+oo..o.+5,;,q45q<><*3<575,<<>7<kh4,t",
"79jd29;7ee74764q4,5mq5r4r43+oXXX..o+.99,*-5r<5,$44qi75q<><1d7<7;",
"<=yz<t>>t<-1tt79545n87i444rio  o+++o5rr*;,<55q<<e79d771277tk-5t2",
"-$9y6t<<97><9e;754qz8rq3r4ywq;.+++iq344,r<<<55qe177e7<794<7d1qgg",
"%<6y9d26<<7<7,;24*5n5q47q-,yqqtiqquir554u95<45rq77<d<<0>9;<k<1hu",
"-71edd2677ee12qt5r7myq,5y,:ituwir5wniqqrri515<5<271e-<770;7nt777",
"<k710:,dhd197<<q5qrzqqq4miqrqq*yqyryrq;<rr<7<<1<2t<t,<dh6;9vt<;<",
"ed:>d-2267-7t<,<4qruq45qur5;4&;4;r:,qq<<11*555<;40-t699<17de7->f",
"h<<176tee7,de;7745r4yq<4q,4qw;;5qqqq4,845<-9t5%%7t-4dd;;;dc99:,d",
"3%19e<>%2->q>-7-<>->-q,$qq<<<,;-q-,,qqq-%>>q7<%$<>6t>e1=,:2>>1<#"
};
