/* XPM */
static char *_176de34dc2e43cda02a13d0d322223ejKC1JjTenqAjWAaR[] = {
/* columns rows colors chars-per-pixel */
"64 64 165 2 ",
"   c #302619",
".  c #322A1D",
"X  c #2F2C26",
"o  c #2B2E2C",
"O  c #352F24",
"+  c #2F312E",
"@  c #3C3326",
"#  c #30332F",
"$  c #3E362A",
"%  c #2D3334",
"&  c #2E3539",
"*  c #2F383B",
"=  c #313636",
"-  c #363836",
";  c #393B37",
":  c #313739",
">  c #343A3B",
",  c #383D3C",
"<  c #403625",
"1  c #433A2C",
"2  c #4A3E2A",
"3  c #433E34",
"4  c #483F31",
"5  c #453F39",
"6  c #4C412D",
"7  c #52452E",
"8  c #58472C",
"9  c #5B4A2E",
"0  c #454037",
"q  c #4C4333",
"w  c #474339",
"e  c #4B463B",
"r  c #4D493E",
"t  c #524731",
"y  c #554935",
"u  c #5E4D32",
"i  c #534C3C",
"p  c #594E39",
"a  c #5D513C",
"s  c #604F34",
"d  c #635135",
"f  c #695637",
"g  c #64543B",
"h  c #695739",
"j  c #6C593A",
"k  c #74613F",
"l  c #7C643E",
"z  c #7F683F",
"x  c #363D40",
"c  c #4F4A40",
"v  c #564F41",
"b  c #575041",
"n  c #5C5343",
"m  c #5D5649",
"M  c #5C584E",
"N  c #434E55",
"B  c #455056",
"V  c #485257",
"C  c #465259",
"Z  c #4A565C",
"A  c #4C585F",
"S  c #615643",
"D  c #655A45",
"F  c #685D46",
"G  c #655C4A",
"H  c #695E4A",
"J  c #665E51",
"K  c #6D614C",
"L  c #776442",
"P  c #7A6745",
"I  c #7C6947",
"U  c #73654D",
"Y  c #76684F",
"T  c #7E6B4A",
"R  c #676051",
"E  c #6C6353",
"W  c #6F6759",
"Q  c #716651",
"!  c #746954",
"~  c #7B6C52",
"^  c #706759",
"/  c #736A5A",
"(  c #786D5A",
")  c #7E7056",
"_  c #7D715B",
"`  c #4E5B61",
"'  c #515E64",
"]  c #536066",
"[  c #55636A",
"{  c #58656C",
"}  c #57686E",
"|  c #58696F",
" . c #576770",
".. c #586770",
"X. c #5C6B74",
"o. c #5F6F78",
"O. c #5F7076",
"+. c #5F7079",
"@. c #606F77",
"#. c #606F78",
"$. c #617076",
"%. c #63737C",
"&. c #836C45",
"*. c #836E4B",
"=. c #886F48",
"-. c #897047",
";. c #84704E",
":. c #8B734C",
">. c #8F784E",
",. c #867251",
"<. c #8A7654",
"1. c #8D7956",
"2. c #83745A",
"3. c #897758",
"4. c #87795E",
"5. c #8E7B5A",
"6. c #937B54",
"7. c #917D5B",
"8. c #967F58",
"9. c #927F5D",
"0. c #937F5E",
"q. c #857760",
"w. c #8D7D62",
"e. c #917F61",
"r. c #988055",
"t. c #978059",
"y. c #94805D",
"u. c #98815A",
"i. c #9B845D",
"p. c #9D865E",
"a. c #9F885F",
"s. c #A0875E",
"d. c #958160",
"f. c #968261",
"g. c #978463",
"h. c #988362",
"j. c #988463",
"k. c #9E8760",
"l. c #998564",
"z. c #9B8866",
"x. c #9C8967",
"c. c #9E8A69",
"v. c #9F8C6A",
"b. c #A28B63",
"n. c #A18A65",
"m. c #A38B66",
"M. c #A48C66",
"N. c #A38D6A",
"B. c #A68E68",
"V. c #A88F68",
"C. c #A89067",
"Z. c #A89169",
"A. c #A9926C",
"S. c #687780",
"D. c #677880",
"F. c #6A7B83",
"G. c #6E7F88",
"H. c #6D8087",
"J. c #6F8189",
"K. c #72858C",
"L. c #74888F",
"P. c #748790",
"I. c #768991",
"U. c #798C94",
"Y. c #7D9098",
/* pixels */
"F a U S S 7 D r K F S ! D K K e g g K g 7 F D r K K a a a U K w H D Q K F Q K M S g D S K K y 3 y a K ! H D D 3 H H D H p H K r ",
"F M.u.=.:.z 6.n p.6.u.p.<.6.1.n u.6.p.&.-.8.1.D Z.k.:.:.:.6.n.G :.n.i.k.b.n.M.K :.:.:.:.1.M.u.D :.&.=.6.:.<.1.m n.i.p.i.6.6.b.F ",
"F B.<.6.t.:.b.S :.6.b.p.6.&.1.H k.u.p.:.6.u.:.y u.i.1.:.p.<.6.n 6.8.b.n.n.n.Z.H <.=.:.p.6.8.A.n &.6.8.=.l &.6.S k.n.k.A.6.6.B.S ",
"F f.P j.y.y.c.G T k y.y.;.I 0./ l.7.y.7.5.z.,.n 3.7.,.z.5.0.I J y.h.5.y.l.f.7.W 3.T 5.l.5.0.l.G 5.;.3.3.P ,.l.m 5.3.T 5.5.N.5.G ",
"F 3.,.f.f.7.g.R 0.k 7.1.*.*.5.J l.,.y.f.f.j.;.i 7.P 5.l.y.c.3.R j.,.0.7.l.f.x.G ;.,.0.v.,.3.f.R j.3.7.,.I 0.y.E f.*.*.1.T 3.3.i ",
"F 0.*.l.l.f.5.^ z.I ,.3.5.c.0.m 3.*.j.j.y.f.;.n 3.T 0.y.3.7.0.J l.5.l.l.f.y.l.G T *.1.z.f.1.0.G 7.*.0.3.,.*.5.R x.j.*.0.0.5.y.b ",
"F j.P 3.f.0.f.W y.7.*.,.0.f.f.G <.;.0.f.0.g.,.i f.,.,.f.T ;.3.n 5.0.,.1.l.c.l.W *.,.j.7.0.l.5.G 0.;.1.5.0.;.0.n f.l.1.y.j.0.3.n ",
"F n.i.3.f.z.f.d g d d d u d u $ s u d d g d d O d d d g d d d @ d d u d s d d 1 d u d d g d d $ d g d 9 d g u u 4 / / W R D D r ",
"F G G S W E n u , % % = = % % . = = % = > > = . , = = = = > : % % = , > > % = > , = = > , > = % > = = % o % = > u 0.g.5.I -.i.D ",
"S <.<.e.5.3.5.9 > % > > = % : > % ` X.X.X.X.X.X.X.X.X.X.X.X.o.X.o.o.$.+.X.X.X.$.X.X.X.$.$.$.` = = % : = = > > % u 0.T P k 6.6.D ",
"S 6.=.3.0.;.,.d % % > > = % > > = ` X.X.X.X.X.X.X.X.X.X.o.X.X.X.%.X.X.o.X.X.X.X.X. .X.%.o.X.` % = = = % > , = & s ;.*.1.5.b.u.a ",
"D :.l I T ;.5.u % = > : % % > > > ' X.X.X.X.X.X.X.X.X.#.o.X.o.o.%.o.X.o.X.X.X.X.X.X.X.$.X.X.` = % = : = > > > : d ,.3.1.y.p.a.U ",
"Q 6.&.,.;.3.5.8 % = > > = % > > = ` X.X.X.X.X.X...X.X.X.$.X.X.X.$.o.X.X.X.X.X.X.X.X.X.X.X.X.` % % % % = > > > > 9 5.5.*.,.u.6.D ",
"K :.6.3.5.7.1.u : : > > = = > > > ` ` ' ` Z A A Z ' ` A ' ' ` Z ` ' ` Z Z A ` ' A ' ' A ` ` ` = = = % : > > : & 9 f.x.*.I &.6.F ",
"a &.6.;.3.;.;.d > = > = % : : = ` C N Z Z B N N V Z C N C A Z N N Z A B B B Z Z B A Z B Z Z N ` , = % , > > > & 9 g.f.5.7.:.6.K ",
"y :.&.1.h.1.0.u > % % % = > : % A ' ` ` ` A ` ` ' ' ` ` ` { ' ` ` ` ' ' ` A ` ` ` ' ' ` ` ' ` ` > % = , > > = O $ W F E ( K S r ",
"3 H a K ^ E R 1 > % : > % = % = ` X.X.X.X.X.X.o.X.X.X.X.X.X.X.X.X.X.X.X.X.X.X.X.X.X.X.X.X.X.$.] : % = > > = > = 7 ~ ~ w.w.0.,.p ",
"q 3.f.4.4.3.2.y & % : > : > = % ` X.X.o.X.X.X.X.X.X.X.X.X.X.o.o.X.X.X.o.X.X.X.X.X.X.X.X.X.X.$.[ = % = > > = = & 9 ,.*.3.y.p.6.a ",
"D M.p.f.1.1.l.u : = > = > > = % ` X.X.o.X.X.X.$.X.X.X.X.X.$.o.X.X.X.X.X.X.X.X.X.X.X.$.$.X.X.%.[ > = % = = = % % u 5.0.5.0.p.p.H ",
"H 8.6.5.,.0.f.d > > > % = = % % ` o.o.o.X.X.#.$.X.X.X.X.X.$.o.+.X.X.X.X.X.X.X.o.X.o.$.X.X.X.%.{ > > > = = : % % u f.l.f.0.6.:.D ",
"S :.u.f.j.z.5.d > , > = = % % % ` X.X.X.X.X.X.X.X.X.X.X.X.$.$.X.X.X.X.X.X.X.X.X.X.X.X.X.X.X.@.] > : > = = > = % s 0.y.f.5.6.&.7 ",
"S :.<.0.l.7.f.u & , > = = % % , Z ` ' A A ` ` ` ` A ` A A ' ' A ` A A ` A ` ' ' ` ' ` A Z ' ' A , > > : % = = > d j.f.l.j.u.6.a ",
"a :.&.*.,.*.5.9 % > = % = % > ` B Z A C B C N B N N N N B C Z C B N C C N B Z Z N C Z C N Z A C ' > = % % : = & s 5.1.1.7.>.6.D ",
"a <.:.,.;.*.;.u > > = % > = ` B C Z ` Z C Z N B B N B N B C ` Z C C C Z B N C C B B Z C N B A Z C ' > = = : = X $ n D a D a K i ",
"m U U ( K H Q 1 x : = = > = ` A ` ' [ ' ` ] ` ` ` ' ` ` ' ` ' ] ` ` ] ] ` ` ` ` ' ' ` ` ` ` ' [ } ' > > = % = = 6 ) ~ ~ Y T y.m ",
"G 5.e.2.4.2.w.6 & : = > > % ` X.X.#.X.o.$.$.X.X.X.X.X.X.$.X.X.o.%.o.X.X.X.X.X.X.X.X.$.X.X.X.#.@.$.` % = % % > > d 0.;.;.7.s.C.K ",
"K Z.Z.y.x.j.N.u % > : > > = A X.X.$.X.$.X.X.X.X.X.X.X.X.X.X.X.$.$.X.X.X.X.X.X.X.X.X.X.o.$.#.#.X.X.Z % = = = > % u ,.3.,.3.6.6.S ",
"H n.n.l.j.y.x.9 & > % > > = A X.o.X.X.$.o.X.X.X.X.X.X.$.X.X.X.$.o.X.X.X.X.o.X.X.X.X.X.$.o.X.#.X.X.` % , > = , & s 0.y.j.y.:.:.p ",
"H b.n.f.y.l.0.u > > % = : = A X.$.X.X.X.$.$.X.X.X.X.X.$.X.X.X.X.X.$.$.X.X.X.X.X.X.X.o.X.X.X.%.$.X.A % , > = > % d ,.5.j.f.6.:.y ",
"E p.M.5.7.x.,.u > > % = = % A X.X.X.X.%.+.X.X.X.X.X.#.$.X.@.X.X.#.X.X.X.X.X.X.X.X.X.X.%.#.X.o.o.X.` % > % > , : d T 3.l.7.8.1.D ",
"H b.p.f.3.f.5.u & > = % : = ` X.X.X.X.%.X.X.X.X.X.X.X.@.$.X.X.X.X.X.X.X.X.X.X.X.X.X.X.$.X.o.$.X.X.` % , > > , * d ,.0.y.*.6.p.K ",
"e ) U _ U ! Q 1 % > % % > , ' ` ` ` A ` A ' ` ` ` ' ` ` ' Z ` ' A ` A ` A ] ' ' ] ' ' ' ' ` [ ' ` A > , > > > % u 1.g.0.,.6.t.H ",
"v 2.U K ~ ~ U 2 % % % = > ' ' ` ` ` ' ' ` ` ` ` ' ' ` ` A A A ' ` A ] ' ' ] ` ' ] [ ] ] ` ' ] ' ' ' ` > > , > % u 7.f.5.l.6.u.D ",
"Q b.6.<.h.0.3.d > = % % ` ' ` ` ' A ' ' ` ' ] ' ] ' ` ' ` ` Z ` ` ` ` A ' ' ' ' ` ] ' ] ` ' ] ` ' [ ' ` = , , : u 1.f.3.y.p.b.H ",
"D <.8.0.x.3.T d : : : = ` ` ` ' ' ' ] ' ` ' [ ' ' ' ` ` ` ` ` [ ` ' ' ` [ [ ' ' ' ' ` ' ` ' ] ` ' ' ' ` % > > > u ,.x.0.5.M.p.K ",
"y :.6.f.j.5.3.d % % = % ' $.$.%.$.$.%.$.$.$.D.%.$.$.$.#.+.X.X.%.%.%.$.$.D.D.S.%.%.%.$.%.$.S.D.$.%.$.%.` % , > > u 0.l.y.f.n.b.F ",
"p :.:.0.f.y.0.s & = > = ' $.%.D.$.$.%.$.$.$.D.%.$.$.$.$.$.%.$.%.S.%.%.%.%.D.S.%.%.%.%.%.$.%.%.S.D.%.$.Z = > > & 9 c.y.j.j.n.n.H ",
"S 6.t.,.;.,.,.u % > > = ` $.%.S.%.D.D.$.$.$.%.$.$.%.S.%.%.%.S.D.D.%.S.%.D.F.D.%.F.%.%.%.%.$.%.F.F.%.%.` = = % % u c.f.l.0.V.M.K ",
"K C.p.7.*.*.0.u > > > > ` %.S.%.$.D.D.%.%.%.%.%.%.D.D.D.D.%.%.%.F.D.D.S.S.D.%.S.F.D.S.%.%.%.%.S.D.%.D.` > > = > 6 q.2.2.) 5.4.G ",
"n 5.U U Y Y ~ 2 = > > > ` S.D.S.%.S.%.%.S.D.F.D.%.D.D.D.D.S.S.%.G.F.D.S.D.G.D.D.D.D.D.D.D.%.D.D.%.F.F.' : > > x 1 Q H H ( U U m ",
"i K a H a D n < X , > > ` %.F.S.S.F.D.%.D.F.F.D.D.D.F.F.D.D.D.%.J.F.F.D.D.F.D.F.F.D.D.F.%.%.G.D.%.D.K.' : = = > d ;.*.;.,.:.6.a ",
"D r.6.y.7.1.7.d * > = = ` %.D.%.$.%.%.%.D.D.D.D.%.D.F.D.%.%.%.D.F.D.D.%.D.F.%.D.D.D.%.%.%.D.D.D.D.%.D.` > > > % 9 0.;.3.*.&.:.a ",
"p 6.u.j.l.j.l.d > > > , ` ' ] ` ` ` A ' ] ' ' ' ` ` ] ] ' ` Z ' } ' ` ` ` { ' ` ` ' Z ` ' [ ] { ' ` ` ` > : = & u f.0.l.0.6.:.S ",
"7 &.6.5.f.y.0.s % > , ' X.X.X.X.X.X.X.X.X.X.O.X.X.X.X.X.X.} | X.X.X.X.X.X.$.X.X.X.} X.X.X.X.X.X.X.X.X.X.' > = > d 5.z.f.f.u.:.D ",
"D >.6.7.f.j.f.u % = ' X.X.| { X.X.X.$.$.| X.$.X.X.X.O.X.X.X.X.X.{ X.X.{ } X.X.X.| X.$.X.| X.X.X.X.X.X.O.X.A % > d f.0.;.5.6.u.H ",
"F p.p.0.5.7.5.u % = ] ] ` ` [ [ [ ` ] [ ` ' [ ] ' ' [ [ ' ` [ ' ' ' [ ' ` { ] ' ` ` ] ] ' ' ` [ ' ' ' [ ' A % : u l.1.5.f.p.M.S ",
"a 6.i.y.3.*.;.9 & = ` F.D.F.P.J.J.F.K.J.F.D.F.J.J.L.L.K.F.F.K.J.J.H.F.J.F.K.I.J.J.L.J.J.K.P.L.F.K.K.L.L.J.` % & t ) 2.4.4.e.,.6 ",
"p ,.5.w.w.~ ~ 7 = % A G.J.F.K.K.H.F.K.J.F.F.J.J.H.H.K.L.K.K.K.K.J.K.L.J.J.G.G.K.L.I.L.K.K.L.K.K.J.F.J.I.L.` % > 1 E E ^ K a H 3 ",
"i S K ( E H Q $ O % ' L.K.J.L.L.J.L.K.J.J.J.K.L.K.F.J.L.P.L.J.L.L.L.L.K.J.F.L.K.P.I.L.I.L.K.K.L.K.J.K.L.L.' = > d 0.1.j.6.-.:.y ",
"K 6.:.6.7.j.l.9 & % ` L.L.L.I.U.L.L.I.L.L.K.J.K.L.J.L.L.I.L.L.I.L.L.L.L.K.H.L.P.L.K.I.I.I.I.L.P.K.K.U.I.K.' = > d ;.;.3.;.6.&.n ",
"F 6.=.I *.z.f.9 & : ' L.L.L.I.L.L.L.L.K.L.K.K.L.J.L.U.U.I.L.L.P.L.L.L.L.I.K.J.U.L.K.U.I.L.L.K.L.K.K.I.U.K.Z = : u 5.7.5.3.6.:.K ",
"D 6.u.,.;.5.5.9 > , [ L.K.K.I.L.L.P.L.L.L.L.L.L.I.L.I.I.U.I.I.L.L.L.I.L.U.L.K.U.I.L.L.I.L.L.I.I.L.L.U.I.L.` = % 9 5.,.*.,.&.6.Q ",
"E k.p.y.1.,.;.d : > [ I.L.L.I.U.L.U.L.I.P.L.L.P.U.L.I.L.I.I.I.I.I.I.U.U.L.L.L.U.U.I.L.I.L.L.U.I.L.L.U.I.I.` = % s 5.;.T I l <.D ",
"a u.k.1.3.*.,.s & = ' I.L.L.L.I.I.I.I.I.L.I.L.U.U.U.Y.I.U.U.U.I.I.L.I.I.I.I.P.U.U.U.L.L.I.I.I.U.K.L.U.U.U.A % % d ,.;.y.3.=.1.S ",
"D 6.6.k P *.y.u % : ` K.H.J.H.F.L.K.K.K.K.J.K.L.L.K.L.L.I.L.L.K.L.L.L.K.L.F.F.L.K.K.J.J.L.K.K.L.J.K.U.L.K.A % > 9 3.3.4.w.,.,.S ",
"D 8.*.I 5.g.5.u > - = + + - - ; = = - - - = = ; = = + - - ; = o o = - = = = = ;   = - - # + = = . = = - - = = , u m W W S H H F ",
"e D G E W / / q u f j h d h h h 1 h h j h h d f 1 h h f h d h h $ h h h j f f h @ f j j h j d f 1 d f d h h h j g l.x.h.5.p.B.F ",
"n 1.y.j.y.1.x.x.n y.,.0.5.5.;.f.G 0.x.f.y.l.3.;.W c.N.x.7.3.f.0.m 5.,.T l.3.3.l.i ,.z.f.l.f.,.3.J l.l.y.,.;.0.j./ f.0.f.1.L f.F ",
"b y.1.5.0.*.f.z.R 5.;.;.3.0.*.7.G 0.3.y.x.1.*.T G l.0.f.l.l.5.x.R 7.0.1.y.0.T 3.n ;.f.y.j.j.T 3.m 0.l.1.3.,.P l.W 5.f.l.l.*.0.F ",
"i 3.1.T 1.*.*.0.R f.0.I ,.5.3.j.R f.3.,.c.0.,.,.G z.f.l.5.7.,.j.R 3.x.y.l.5.I 7.i ;.j.f.f.y.,.z.R 5.*.*.1.0.k 5.R l.5.f.f.,.1.F ",
"G 7.N.5.0.*.1.5.n j.,.P 3.3.;.1.G z.y.5.j.1.T 1.W 7.f.l.f.7.j.y.J I 7.7.l.,.y.3.n ,.z.5.7.y.0.l./ 0.I ,.y.y.L I G v.0.y.h.I j.F ",
"S B.6.6.A.k.M.b.S 6.&.l =.6.6.&.n Z.8.6.u.:.-.<.H Z.n.n.n.b.u.6.n 8.<.p.=.6.p.u.y :.u.6.:.p.u.p.G <.&.6.p.b.6.:.S b.:.6.6.6.B.F ",
"G k.1.,.8.y.8.k.m ,.,.:.1.=.&.;.S 6.n.,.=.;.:.:.H k.x.j.j.8.k.:.G k.1.-.=.;.i.M.G <.6.&.&.i.1.6.a <.6.:.i.6.1.i.n <.l =.&.8.k.F ",
"c K H p H D H D 5 S G F ^ K a y 0 t H K S D a S M K E G K E S H e K Q a a a K K c D D t S K S S r K K D Q S H H r S t S S Q p H "
};
