/* XPM */
static char *b9cd033bc3f7497c822c9ef9a13be247YdXFGvVNtOqLDKEJ[] = {
/* columns rows colors chars-per-pixel */
"64 64 132 2 ",
"   c #0E0F13",
".  c #121319",
"X  c #2F271E",
"o  c #1A1B23",
"O  c #1E1F29",
"+  c #262523",
"@  c #282725",
"#  c #2A2827",
"$  c #501F1F",
"%  c #5B1F1F",
"&  c #69221F",
"*  c #472926",
"=  c #4C2E2A",
"-  c #463423",
";  c #4F312D",
":  c #43382F",
">  c #51322E",
",  c #642E2A",
"<  c #722020",
"1  c #7D2020",
"2  c #66302C",
"3  c #68322D",
"4  c #1E413F",
"5  c #5B4A37",
"6  c #224545",
"7  c #23524E",
"8  c #27635E",
"9  c #2A736E",
"0  c #544D46",
"q  c #5B4D44",
"w  c #5A5146",
"e  c #56564C",
"r  c #5E544B",
"t  c #5D5D53",
"y  c #62564D",
"u  c #64594E",
"i  c #695D4E",
"p  c #665C52",
"a  c #695F53",
"s  c #526A5B",
"d  c #66624E",
"f  c #636156",
"g  c #6C6255",
"h  c #67665C",
"j  c #6E655A",
"k  c #6E685F",
"l  c #716556",
"z  c #71675A",
"x  c #746A5D",
"c  c #796D5E",
"v  c #7D705E",
"b  c #6F6A61",
"n  c #766D61",
"m  c #796E62",
"M  c #767066",
"N  c #7C7265",
"B  c #7D7266",
"V  c #7D7466",
"C  c #7B7368",
"Z  c #7C7368",
"A  c #7F7568",
"S  c #7F776A",
"D  c #7F786E",
"F  c #964539",
"G  c #936236",
"H  c #864141",
"J  c #897257",
"K  c #8C745A",
"L  c #957A5C",
"P  c #B47944",
"I  c #817464",
"U  c #817667",
"Y  c #837867",
"T  c #837668",
"R  c #80776A",
"E  c #83776A",
"W  c #83786B",
"Q  c #81786D",
"!  c #847A6C",
"~  c #847B6E",
"^  c #887B6C",
"/  c #887D6E",
"(  c #8B7F6F",
")  c #9A7F61",
"_  c #867D71",
"`  c #897F71",
"'  c #8C7F71",
"]  c #8A7F74",
"[  c #2F847D",
"{  c #BF8754",
"}  c #8C806F",
"|  c #9D8163",
" . c #978869",
".. c #8A8071",
"X. c #8D8071",
"o. c #8C8273",
"O. c #8B8174",
"+. c #8E8275",
"@. c #8F8476",
"#. c #8C8579",
"$. c #8F887D",
"%. c #928575",
"&. c #958977",
"*. c #908678",
"=. c #918779",
"-. c #958979",
";. c #948A7B",
":. c #978C7A",
">. c #978B7C",
",. c #998C7B",
"<. c #9E917F",
"1. c #9B9979",
"2. c #AE8D69",
"3. c #B28F69",
"4. c #BA8D69",
"5. c #BC9068",
"6. c #A0927F",
"7. c #BF9A72",
"8. c #C58D69",
"9. c #D6AC7E",
"0. c #33958D",
"q. c #998181",
"w. c #9D9384",
"e. c #999288",
"r. c #A29483",
"t. c #A89988",
"y. c #ADA18F",
"u. c #DEB282",
"i. c #CBBCAF",
"p. c #D6CBBE",
"a. c #C5C3C3",
"s. c LightGray",
/* pixels */
"N ~ ..c C _ A j A C Q c Q R N V N j n ~ n x N Q Q Q U U N N a x N W m N N N j N R l g ~ m N A A N n ~ R a c N p m N A N z W Q N ",
"N x N n Q ~ A n C Z N Q R g x ~ x x M ~ W N c n ~ U U c c N q q r g N m ~ c m n x x N N g m W n N N ' U g m N a n A N / n N R R ",
"n m c ~ / ~ N n c V c ..j x z V A V x / x R N x N c y i r p < < < < p y a y ~ R z l / @.x N N j N R ~ W x U R z j m n -.R z m N ",
"N Z N -.../ l c m N m X.g z m m n ~ z :.~ Q N @.r u $ $ $ $ $ $ $ $ $ $ $ $ u g R x / ] n Z N N n n N / N U R ' N Z n =.^ c Q ` ",
"~ W N X.R x c v ^ R m R A N c x N ~ c ` N N y p $ $ $ $ $ $ $ $ $ $ $ $ $ $ $ $ a g V ` A Z R R N n R -.N N U R +.` Z O.` m ` Q ",
"N x m N R j j c x n z Q R V R W R V c N N u $ $ $ $ $ $ $ $ $ $ $ $ $ $ $ $ $ $ $ $ r X.R x x ~ A n Z +.R m N Q N A x N N n n j ",
"Q ..A n N g x n n x V -.N n Q A x j n ~ p $ $ $ $ $ $ $ $ $ $ $ $ $ $ $ $ $ $ $ $ $ $ a ~ Z m W A N j X.V n x / A Z j j m k x z ",
"R ~ m N m x N N R x ~ =.x n n k ~ n A g $ $ $ $ $ $ $ $ $ $ $ $ $ $ $ $ $ $ $ $ $ $ $ $ z ~ U ~ g Z R =.c n A ~ N N n V W A ` V ",
"R N ..C N N m n N n Q / x n x n W m y $ $ $ $ $ $ $ $ $ $ $ $ $ $ $ $ $ $ $ $ $ $ $ $ $ $ r j N z Z N ~ x N n n n n N _ m ` A V ",
"x m -._ z W N N N Q R / N N Q A Q ` $ $ $ $ $ $ $ $ $ $ $ $ $ $ $ $ $ $ $ $ $ $ $ $ $ $ $ $ j n N n N Q N N R V x C ` W ` ~ V m ",
"n n Q / a n N m R O.~ %.A _ C n _ j $ $ $ $ $ $ $ $ $ $ $ $ $ $ $ $ $ $ $ $ $ $ $ $ $ $ $ $ r n W W Q O.n x R A n C x c ~ / ` m ",
"R N x ~ x j x n x k N =.x A Z _ X.$ $ $ $ $ $ $ $ $ $ $ $ $ $ $ $ $ $ $ $ $ $ $ $ $ $ $ $ $ $ A R ~ R ` ~ N m Q ` W c x R X.R n ",
"O.-.R / ~ C n N N n N @.x j n _ X.$ $ $ $ $ $ $ $ $ $ $ $ $ $ $ $ $ $ $ $ $ $ $ $ $ $ $ $ $ $ Q m R R m N N V N ~ ~ N N c N A x ",
"Q A N U ~ R n V N Q N A N n m ~ p $ $ $ $ $ $ $ $ $ $ $ $ $ $ $ $ $ $ $ $ $ $ $ $ $ $ $ $ $ $ z x A N N m Q ~ n g W N W V n A A ",
"x Q m N m W x z x ~ N N N b k ~ $ $ $ $ $ $ $ $ $ $ $ $ $ $ $ $ $ $ $ $ $ $ $ $ $ $ $ $ $ $ $ $ c n m R n m x N N X.@.~ ~ n z _ ",
"x N N ..x Q x x z m N A x n n R $ $ $ $ $ $ % % % % % % % % % % % % % % % % % % % % $ $ $ $ $ $ k j N n x g x +.~ m R / N A x N ",
"c c N +.N m ` -.N N N N N N _ V % % % % % % 1 1 1 1 1 1 1 1 1 1 1 1 1 1 1 1 1 1 1 1 % % % % % % k N N ~ ~ x ` @.x n N U g R N c ",
"A k R / N m #.` N _ Z Q A _ x a & 1 1 1 1 1 1 1 1 1 1 1 1 1 1 1 1 1 1 1 1 1 1 1 1 1 1 1 1 1 1 & r a m Q R m R ~ m x n ~ x ` c V ",
"c z _ :.m N #._ N N m =.~ O.u.u.5 & & 1 1 1 1 1 1 1 1 1 1 1 1 1 1 1 1 1 1 1 1 1 1 1 1 1 1 & & 5 u.u.N m n A x A A N n &.A N g V ",
"~ N +.y.~ ~ _ -.~ n V ,./ N u.u.u.X 5 F F F 1 1 1 1 1 1 1 1 1 1 1 1 1 1 1 1 1 1 1 1 1 F F 5 X u.u.u.N R ^ ~ ~ +.~ ~ W ~ n m c O.",
"~ V N ,.~ N N +.~ W -.=.x g u.u.u.5 u.u.u.u.& & & & & F F F F F F F F F F & & & & & F u.u.u.5 u.u.u.A ` ..Q N ` _ W W U c z m N ",
"A A R X.~ n n Z ..N N R m n u.u.u.u.u.u.u.3.X X X X X 3.u.u.u.u.u.u.u.u.3.X X X X X 3.u.u.u.u.u.u.u.N ~ ..Q c N V N R R / m x n ",
"m A _ O.+.C m N O.~ m n ~ m | u.u.u.u.u.u.5 0 0 - - - 5 u.u.u.u.u.u.u.u.5 - - - 0 0 5 u.u.u.u.u.u.| ~ R @.A g c ~ X.@./ / Q N N ",
"R A A X.R +.~ n z A ..n W Q A | | 9.u.u.u.u.a.a.G G G u.u.u.u.u.u.u.u.u.u.G G G a.a.u.u.u.u.9.| ) n N ..W V z ` A R ~ / ~ A N N ",
"` R R V N O.` x g k ..n N R m R O.7.u.u.u.u.s.s.P P P u.u.u.u.u.u.u.u.u.u.P P P s.s.u.u.u.u.7.~ C N N ~ z ~ N +.N V ~ %...n z x ",
"_ ~ Q N k N n x A n m n N N ~ ~ R K 9.u.u.u.s.s.P P P u.u.u.u.u.u.u.u.u.u.P P P s.s.u.u.u.9.J V N x m N z _ A A A x ...._ m m Q ",
"N R R X.N R m N @./ N V Q m ../ V R 7.u.u.u.s.s.5.P P u.u.u.u.u.u.u.u.u.u.P P 5.s.s.u.u.u.7.z m m a m #.x ~ m n A j N -.` ` ~ +.",
"X.V R <./ R N X...X.R ~ =.R ~ U U W K 9.u.u.s.s.s.P P u.u.u.u.u.u.u.u.u.u.P P s.s.s.u.u.9.J R W m R n +.N Q x N O.m C r.X.} R -.",
"X.X.W ` W N x n / ~ R / n j N c N ~ N 7.u.u.p.s.i.P P u.u.u.u.u.u.u.u.u.u.P P i.s.p.u.u.7.n N R ~ W A O.~ n m n e.=.R =.R n x ..",
"A N m N N ~ m x n N z R U N m j m R e 1.9.u.u.p.{ { { u.u.u.u.u.u.u.u.u.u.{ { { p.u.u.9.1.t e n n A ~ ~ N z n n _ _ N A ~ j m V ",
"~ R R Q N N R m N m g R =.N g i N h 0.0.1.9.u.u.u.u.u.u.u.u.u.u.u.u.u.u.u.u.u.u.u.u.9.1.0.0.0.f m N ~ x N m g j V x N A ` n A ~ ",
"m n m N V R Q c c m g =.~ U x x f 0.0.0.0.1.9.u.u.u.u.u.u.u.u.u.u.u.u.u.u.u.u.u.u.9.1.0.0.0.0.0.f z c N x N m x R N W / R m _ V ",
"x m g x m R x m U x x X.x U N f 0.0.0.0.0.0.1.9.9.u.u.u.u.u.u.u.u.u.u.u.u.u.u.9.9.1.0.0.0.0.0.0.0.e n X.n z N A A A R / N ~ m z ",
"N _ z n V m N x m m U N g m R 0.0.0.0.0.0.0.0.1.1.9.9.9.u.u.u.u.u.u.u.u.9.9.9.1.1.0.0.0.0.0.0.0.0.0.C =._ N c x Q U U V m _ N c ",
"A ~ Q m R m ` U z z / X.j N t 0.0.0.0.0.0.0.0.0.0.1.1. .9.9.9.9.9.9.9.9.2. .1.0.0.0.0.0.0.0.0.0.0.0.t =.x R V x N m U / V ` / R ",
"~ O.W ^ / U ~ X.U j / =.j N 0.0.0.0.0.[ 0.0.0.0.0.0.0.8  . .2.2.2.2.2. .d 8 0.0.0.0.0.0.0.[ 0.0.0.0.0.&./ ~ ~ >.~ ~ X.6.@.U R ~ ",
"N ~ N =.~ x z R R N A W g N [ [ [ [ [ 7 0.0.0.0.0.0.0.0.8 8 d d d d d 8 8 0.0.0.0.0.0.0.0.7 [ [ [ [ [ X.+.D ~ +.@./ ~ @.>.m m n ",
"z c N ` ~ g n N j g n m c g s s s s s 7 0.0.0.0.0.0.0.0.0.0.8 8 8 8 8 0.0.0.0.0.0.0.0.0.0.7 s s s s s R ` R N N N ` ~ ` N m W c ",
"V n N ~ / z g N g z N x N g u.u.u.u.u.7 0.0.0.0.0.0.0.0.0.0.0.0.0.0.0.0.0.0.0.0.0.0.0.0.0.7 u.u.u.u.u.X.V n x W z N N W x m n z ",
"n c N N N U x m a x x z c u u.u.u.u.| 7 0.0.0.0.0.0.0.0.0.0.0.0.0.0.0.0.0.0.0.0.0.0.0.0.0.7 ) u.u.u.u.N N x N N j c N N V N N ~ ",
"z m / x m m x k N n c N z u.u.u.u.u.N 7 0.0.0.0.0.0.0.0.0.0.0.0.0.0.0.0.0.0.0.0.0.0.0.0.0.7 m u.u.u.u.u.N x m ~ N x A R z N N N ",
"m x +.~ N j g n Q ` z c g u.u.u.u.L z 7 0.0.0.0.0.0.0.0.0.0.0.0.0.0.0.0.0.0.0.0.0.0.0.0.0.7 ` | u.u.u.u.N z z ~ N N M A a N z z ",
"n m R X.Z m V m N A c / n u.u.u.u.w x 4 [ [ 0.0.0.0.0.0.0.0.0.0.0.0.0.0.0.0.0.0.0.0.0.[ [ 4 ` ~ u.u.u.u.N U W ~ Q R n C x R U U ",
"N R ~ X.R U m x m N ~ / N u.u.u.u.c N   4 4 9 [ 0.0.0.0.0.0.0.0.0.0.0.0.0.0.0.0.0.0.[ 4 4   R ~ u.u.u.u.U %.} X.~ N R ~ ~ R ~ R ",
"W W ` O.~ R z j m n N W m u.u.u.u.c N         4 [ [ [ [ [ [ [ [ [ [ [ [ [ [ [ [ [ [ 4       N a u.u.u.u.N / ~ N U N @.~ N N z a ",
"m m _ ~ ..N W ~ ~ n k V X.u.u.u.u.9.n     . . . 4 4 4 4 4 4 4 4 4 4 4 4 4 4 4 4 4 6 . .     R 9.u.u.u.u.A ~ Q R / A W ~ V g x x ",
"~ N _ n ~ N ..N R A A A ~ 9.9.9.9.J j   . O O O . . . . .               . . . . . O O O .   U K 9.9.9.9.~ A x Q R m N =.W g N ~ ",
"-.n R ~ z n N x x m _ ~ W K J K K V x + o O O O O O O O O .   @ + @   . O O O O O O O O o @ N c K J J K N m j N N m m W m j n R ",
"` m m &.n N n A A a N X.A V c N x W n c   O O O O O O O O o @ c c x + o O O O O O O O O   R m x A n V R Z N N Q n W Q A N c z j ",
"R R N -.A N A N N g U ~ j j N R g g g j   O O O O O O O o # m N A j N @ o O O O O O O O   R R V m m ~ N R ` N N W R U R m n c A ",
"c N N / n V =.R A n c X.R N ~ Q z x ~ N : o o o o o o o : N a z z z Q %.: o o o o o o o : ~ ` N N +.O.N _ Q m R ` R U / N m x ~ ",
"m c n &.U ~ ..~ N m N &...R +.N n x V ~ 4.: : : : : : : 4.z g R N z ` t.4.: : : : : : : 4.c R m A W A D O.~ N ~ X.N / ,.V n N Q ",
"N W m ^ -.N Q U ~ m m V n V N x _ ~ W ` $ 4.u.u.u.u.u.4.% a x c N x m %.% 4.u.u.u.u.u.4.% j g N Q W O.A ` ~ A N / / c X.W R m x ",
"c x m N =.x A @.A g x x m m n m m A N R % % 8.8.8.8.8.% 1 c n x x x c ~ 1 % 8.8.8.8.8.% 1 g x N A c Q n U x x c z N x -.=.Q n m ",
"j g _ N W N z N c N R x N A m ` g n R R 2 < < < < < < < 3 W N n z N Q Q , < < < < < < < , z x g x x N N c j x c j N c =.X.m z Q ",
"N N $.` N R j Z W W N n N n n U c z N :.u $ $ % % % $ $ U n m m N N A ~ x $ $ % % % $ $ r N j u n x N X.V m N c z x c %.N n m j ",
"x a ~ =.x W g l W x a n ~ R m R N n N <.$ $ % H H H % $ p g g j ~ N Q V r $ % H H H % $ $ N x z A N A } N N c m m N ~ %.j m ~ N ",
"g p W / N ~ x z Z N z x U R z N m x N =.$ % 1 q.q.q.1 % $ g x N ~ R ` A $ % 1 q.q.q.1 % $ m N W m N N ^ N x V N n n N X.c V +...",
"g x N / R / N m x x N c m x j m c g n w.$ 1 1 H H H 1 1 $ N ~ @.m N ` =.$ 1 1 H H H 1 1 $ m ~ V N V c ^ x x Q z R k x =.x c =.~ ",
"l N m ~ } / U N V N R U c N U ~ c R C w.; < 1 q.q.q.1 < > ~ U :.~ m ~ ,.> < 1 q.q.q.1 < = x c x m U c ~ g x N N W j N w.Q U N N ",
"x %.N c W z x ~ +.` m A N x x A V N Q =.Q = < < < < < = N N g ~ N / ~ ` R = < < < < < = n x c x m W c ~ x n ~ +.N j N w.W n j c ",
"W / z z _ j N N N N g N ~ c j n x N W ~ U n = = ; = = z c g l m j R x x m R = = = = * m m N x j n A g D N Q Q x n N / U U j j _ ",
"#.x x c N n ~ R W A x ` ~ j m V n N R c / N x n A x m m ~ g z m N N m N m n N x m x g N ~ m a a N ~ g n ~ ~ z g z _ ,.V U x z ~ ",
"x g n V ~ z z g v g l N l g N g z l g l l V c g N c c c c x l j N z x c m c V j g l g R N x i u x x N Y l ~ c f z x c x l m c r "
};
