/* XPM */
static char *_252c1bf7a9346b6b4a11d1aac631bc0O7nlWkmAQHOs42Vq[] = {
/* columns rows colors chars-per-pixel */
"64 64 49 1 ",
"  c None",
". c #0A0B0E",
"X c #0E0F13",
"o c #121319",
"O c #3C1717",
"+ c #2F271E",
"@ c #1A1B23",
"# c #1E1F29",
"$ c #501F1F",
"% c #5D1818",
"& c #5B1F1F",
"* c #69221F",
"= c #463423",
"- c #43382F",
"; c #722020",
": c #7D2020",
"> c #1E413F",
", c #5B4A37",
"< c #224545",
"1 c #23524E",
"2 c #27635E",
"3 c #2A736E",
"4 c #544D46",
"5 c #526A5B",
"6 c #66624E",
"7 c #964539",
"8 c #936236",
"9 c #864141",
"0 c #8F7355",
"q c #B47944",
"w c #2F847D",
"e c #BF8754",
"r c #978869",
"t c #9B9979",
"y c #A68561",
"u c #AE8D69",
"i c #B28F69",
"p c #BA8D69",
"a c #BC9068",
"s c #BF9A72",
"d c #C58D69",
"f c #D6AC7E",
"g c #33958D",
"h c #998181",
"j c #DEB282",
"k c #CBBCAF",
"l c #D6CBBE",
"z c #C5C3C3",
"x c LightGray",
/* pixels */
"                                                                ",
"                                                                ",
"                              ;;;;                              ",
"                          $$$$$$$$$$$$                          ",
"                        $$$$$$$$$$$$$$$$                        ",
"                      $$$$$$$$$$$$$$$$$$$$                      ",
"                     $$$$$$$$$$$$$$$$$$$$$$                     ",
"                    $$$$$$$$$$$$$$$$$$$$$$$$                    ",
"                   $$$$$$$$$$$$$$$$$$$$$$$$$$                   ",
"                  $$$$$$$$$$$$$$$$$$$$$$$$$$$$                  ",
"                  $$$$$$$$$$$$$$$$$$$$$$$$$$$$                  ",
"                 $$$$$$$$$$$$$$$$$$$$$$$$$$$$$$                 ",
"                 $$$$$$$$$$$$$$$$$$$$$$$$$$$$$$                 ",
"                 $$$$$$$$$$$$$$$$$$$$$$$$$$$$$$                 ",
"                $$$$$$$$$$$$$$$$$$$$$$$$$$$$$$$$                ",
"                $$$$$$&&&&&&&&&&&&&&&&&&&&$$$$$$                ",
"                &&&&&&::::::::::::::::::::&&&&&&                ",
"                *::::::::::::::::::::::::::::::*                ",
"              jj,**::::::::::::::::::::::::::**,jj              ",
"              jjj+,777:::::::::::::::::::::77,+jjj              ",
"              jjj,jjjj*****7777777777*****7jjj,jjj              ",
"              jjjjjjji+++++ijjjjjjjji+++++ijjjjjjj              ",
"              yjjjjjj,44===,jjjjjjjj,===44,jjjjjjy              ",
"               yyfjjjjzz888jjjjjjjjjj888zzjjjjfyy               ",
"                 sjjjjxxqqqjjjjjjjjjjqqqxxjjjjs                 ",
"                 0fjjjxxqqqjjjjjjjjjjqqqxxjjjf0                 ",
"                  sjjjxxaqqjjjjjjjjjjqqaxxjjjs                  ",
"                  0fjjxxxqqjjjjjjjjjjqqxxxjjf0                  ",
"                   sjjlxkqqjjjjjjjjjjqqkxljjs                   ",
"                   tfjjleeejjjjjjjjjjeeeljjft                   ",
"                  ggtfjjjjjjjjjjjjjjjjjjjjftggg                 ",
"                 ggggtfjjjjjjjjjjjjjjjjjjftggggg                ",
"                ggggggtffjjjjjjjjjjjjjjfftggggggg               ",
"               ggggggggttfffjjjjjjjjfffttggggggggg              ",
"               ggggggggggttrffffffffurtggggggggggg              ",
"              gggggwggggggg2rruuuuur62gggggggwggggg             ",
"              wwwww1gggggggg226666622gggggggg1wwwww             ",
"              555551gggggggggg22222gggggggggg155555             ",
"              jjjjj1ggggggggggggggggggggggggg1jjjjj             ",
"              jjjjy1ggggggggggggggggggggggggg1yjjjj             ",
"             jjjjj 1ggggggggggggggggggggggggg1 jjjjj            ",
"             jjjjy 1ggggggggggggggggggggggggg1 yjjjj            ",
"             jjjj  >wwgggggggggggggggggggggww>  jjjj            ",
"             jjjj  X>>3wggggggggggggggggggw>>X  jjjj            ",
"             jjjj  XXXX>wwwwwwwwwwwwwwwwww>XXX  jjjj            ",
"             jjjjf XXooo>>>>>>>>>>>>>>>>><ooXX fjjjj            ",
"             ffff0 Xo###oooooXXXXXXXooooo###oX 0ffff            ",
"             0000  .@########oX...Xo########@.  0000            ",
"                    X########@.   .@########X                   ",
"                    X#######@.     .@#######X                   ",
"                    -@@@@@@@-       -@@@@@@@-                   ",
"                    p-------p       p-------p                   ",
"                    $pjjjjjp&       &pjjjjjp&                   ",
"                    &&ddddd&:       :&ddddd&:                   ",
"                    %;;;;;;;%       %;;;;;;;%                   ",
"                     $$&&&$$         $$&&&$$                    ",
"                    $$&999&$         $&999&$$                   ",
"                    $&:hhh:&$       $&:hhh:&$                   ",
"                    $::999::$       $::999::$                   ",
"                    O;:hhh:;O       O;:hhh:;O                   ",
"                     O;;;;;O         O;;;;;O                    ",
"                      OOOOO           OOOOO                     ",
"                                                                ",
"                                                                "
};
