/* XPM */
static char *result[] = {
/* columns rows colors chars-per-pixel */
"64 64 59 1 ",
"  c black",
". c #1D1D1D",
"X c #251710",
"o c #002F00",
"O c #3F271B",
"+ c #2C2C2C",
"@ c #005B00",
"# c #5E574C",
"$ c #655B4F",
"% c #685E4E",
"& c #655D52",
"* c #695F53",
"= c #676056",
"- c #6B6255",
"; c #6E655A",
": c #6E685F",
"> c #716556",
", c #71665A",
"< c #746A5D",
"1 c #796D5E",
"2 c #7D705E",
"3 c #6F6A61",
"4 c gray42",
"5 c #766D61",
"6 c #796E62",
"7 c #767066",
"8 c #7C7265",
"9 c #7E7569",
"0 c #7F796E",
"q c gray50",
"w c #880015",
"e c #B9001C",
"r c #FF062C",
"t c #ED1C24",
"y c #815136",
"u c #B97A57",
"i c #817566",
"p c #837867",
"a c #817669",
"s c #847A6C",
"d c #897D6E",
"f c #857D71",
"g c #897E71",
"h c #009D00",
"j c #8B806F",
"k c #8C8273",
"l c #8C8579",
"z c #8F887D",
"x c #928575",
"c c #938876",
"v c #918679",
"b c #958A7B",
"n c #998C7B",
"m c #9E917F",
"M c #9E9384",
"N c #A29483",
"B c #ADA18F",
"V c #C3C3C3",
"C c white",
/* pixels */
"8ff59f9;9701si885;5d5<8sss9i66*<8s686i;6a>-s1iai65aa&5i&6iii-sai",
"8<85ss05998s9;<s<56s96<5sii15i>,5g66d5655>6i*6s58iga-6i$<aif,6aa",
"66<sds85<81j><<89i<d<98<111p5aa89ks8d6sa<>fv,i6;aafa6ia5;65Ma,58",
"898vjd;1787j-,725s,nss8l1idxpi6akls8aaaga1gg5aa6356d6aagi66ld6ag",
"ss7ks<12ss8s98119s5g969sdi8sk865ps5ga6,asg8g97sa66sM6aaaggagf5ga",
"8<589;;1<1:9i9isaa566i56a<5d<6p1,69kii65886ka<<sa5sga56a9i:6656:",
"sg968-<51<9b81s95*5sai1ii656,6868<     6<6dfg86pa8:gi55ga6:;6::,",
"9f665<88i:sz:5<:s59g9*6a<5iias8f   ooo   i5pxsis*8ag55aa975iaiga",
"a5g866659<sg<555p5is5*6s<,9f899  h@@@ooo -8p66<6,i6f575575if6dai",
"<5Mf,a9i8sas66s8fffs6;>i6<5f   hh@@@@@@o  1>*6;3856si6aa:7gafsi6",
"55sg*5669ksx9f87glss56iaa8>8 hhoooooooo@o  <-s55asfg35aa59:5fgf6",
"s65s5;35<:8v308fgssi5gpdf8<9 ht+o oo+too@o d6p69aaads65aga6<aga6",
"gbafs956959l:;5fgi6<6ps6     h@@ @@oooo@ o g,<,s6aa696aiss6666a5",
"ss6aaa566s9a655fs<866aa6  C  h@@ @@@@@@ C o f,av3a686sd3*s9si59a",
"5s666s3,3s88633ss6pk88;98  CC @@@ @@@@ CCC   68s656a6639agggd3:s",
"<6ig,s<,,66a<359866f86&<55< CC  @@@@@@ CCC   5ip:;65,*5gd6id6a56",
"116k86gni556a6fi3,69765a6   CCC oooooo CC @@   ;:iias3gg65ii*s65",
"8,adi5lgafaaafgi66s8if66s ++    ooooooo   @  .. ;65aa7ad655s3g5i",
"5<dn69lsi6igflafagbaf     44         ooo @  +.. 5;a65959976xa8*a",
"f6kBssfbs5iMg6avifa     @    rrreee  @@@@  4++.  55adfskssss565g",
"s97Msi6xfaMg:=ilgs hhhhh@  rrreeeeeee  @@ 444       xs8ffasa5>6i",
"a9avs559f95a659ffs hhh@@@ rreeeeeeeeeww   44 o oooo  s18iiapd6<5",
"69fgg939gf65f5a79  hh@@@  reeeeeeeeeewwww   oooooooo  ;1sgxsgsi6",
"a9agaga5:ag5saiaa hh@@@  eeeeeeewwwwwwwwww @ooooooooo ,gaafgsa66",
"fsai6gg:=:g68a6a  @@@oo eeeeeewwwwwwweeww  @@@ooooooo  k6adxk3:<",
"fss6:553a56566sf @@@@oo  eeew     wwweeww @@@@@@@@oooo 985dkd66s",
"6isgii5igfaagigd  @ooooo www rrre   wwwww @@@@@@@@@ooo 5a;8bggak",
"giiNdaigggaagaais   oo      rrreeee   www @@@@@@@@@ooo     Nkgpb",
"ggsgsi,5gfadi-i<  h oo rrrrrreeeeee   ww  @  @@@@@@@   err va<5g",
"aa566s655i,sii6, hhh@ rrrrrrreeeeeee     @@@  @@@      eer  s,6i",
"saas6ia6i<*sgi** hh@ rrrreeeeeeeeeeew   @@@@@    ......  rr g59s",
"556iaaa5<i-gaa, hh@@ rereeereereeeeww w @@@@@@  qqqMqqq.. e  6fa",
"56-<6a55i1>x<i8 hh@@ eeeeeeeeeeeeewww   @@@@@ .qq      q.. e s6,",
"9g>5i66516i6;6a hh@@ eeeeeeeeeewwwwwew  @@@  .q   uyyy  q..  f81",
"8fs6a6ga<>dx;86, h@@ wweeeeeewwwwwwwwww  @   .  yyuuyyy q..  gga",
"fgisdisgi,gv;888  @@ wwwwwwwwww    wwwww @  .  yyyyuyyy  q.. i9d",
"6p6cs<,iaiaa;88a  @@  ww       ...   wwww   q yuyyyuuyyy qq. 665",
"<5igs*59,*552=,  @@@     .........+..   w  .  yuyyyyuyyyu qq. i<",
"i56sg<*9*,8<9=9 @@ooo  .....+.+.+++...     q yyyuyyyy  yy  q. 5<",
"5<i66a37*<<<2,  @@@oo ....qq+.++++q.q. qq .q yyyuyy      y  q 8d",
">6d1 6<;8518,i @@@@@  ..4.qq+.++4+q.q.    .q yyyuuy qqVV yu  q 8",
"6<k V -5sd,1;9 @@ @   q.4.q +..+4+q.q..@@ .q yyyyu  qVVV  uy q ,",
"56a VV 6891d18    @@ C q4qq +q++44q.qqq @ .q yyyyu qqVVVV yu q i",
"6ad VV <78sd2  yy  @ C q4qq +q+q+4q..q+ @ .q uyyyy qqqVVq yu q s",
"0sfk V ;57   yyy @@  C  4qq +q+q+4q..q+   .q uyyyy +qqqq  yu q *",
"68fs VV d5 yyy      C   +4q +q+q+4q..q+   .q uuyyy ++qq  uyu . <",
"s8s5 VV   yy  6f68;8  y +4q +q+q+4q..q+ y .q yuyyy  ++  yuy  . s",
"b5as VV yyy s95kk9<  yy +4q qq+q+4q..q+ y .q yuyyyy     yuy q. s",
"f58    yy  k9918<s5  yy +4q+ qqq+4 q.q+   .q yyuyyyu   yyu  q. ;",
"9s   yyy  id;;8i**-   y +4q+ qqq+4 q.q+   .q yyuyyyyuyyyyy  q.19",
"1 yyyyy 951k98ss<<f8    +4q+ qqq++ q.q+ O  q  yuuyyyuuyyyy  q <d",
"5 yyy   888cksk85<iss O +4q+++qq++qq.q+ OO .q  yuyyyyuyyyy q. 99",
"8 yy VV s6196983fssgi O +4q+++qq++qqq++ OOO .q yuyyyyuyyyy q 96<",
"<<   VVV -<<66566a6ai O +44++++q++4qq++ OOO .qq uyyyyuuyy  . f55",
";=j7s VV 8a1896g-5spi O ++4++++q+++4q++ OOOO .q  yyyyyuy  q k6<s",
"88zj29 VV 85875a536n8 O             +++ OOOO ..l yyyyyu  qq 851;",
"<=sl,s> VV 6da6a858m  OOOXX a**<f8    + OOOOO ..  yyy   .. x>6p8",
"-&id8s<< VV  a,85<   OOOOXX 6,38ssga<   OOOOOO  .     q.  8k18kg",
"%<8d9j27<  <6<;61- OOOOOOXX 99px66gv   OOOOOOOXX  qqqq  a;:x11vf",
">85sjj8298si12is1  OOOOXXXX gsins5s  OOOOOOOOOXXXX    88s;8Ms888",
"<x81s:>jkj198<<   OOOXXXXXX 88*s8ds OOOOOOOOOXXXX  d<<sk8>8Mi1-1",
"ij<>s:8278-8s1, OOXXXXX     1*>6,a< OOXXXXOXXXXX  -080s<18j98;;f",
"l1<<81sps9>ds,6i       5i166p-<66668    XXXXX    s;<js:-:jn9p::s",
"3%19p<>%2=>i>-8*,>>>>91*2116<<>,6<<1619      <%$<,7s>p1=>:2>>11#"
};
