/* XPM */
static char *_f498cbc8ccb43e1926866aa47f1dcd9HtEfw97tGbzWR1sg[] = {
/* columns rows colors chars-per-pixel */
"64 64 102 2 ",
"   c #5A5146",
".  c #5E574C",
"X  c #645B4F",
"o  c #685E4E",
"O  c #655D52",
"+  c #695F52",
"@  c #676056",
"#  c #6C6255",
"$  c #6E655A",
"%  c #6E685F",
"&  c #716556",
"*  c #71665A",
"=  c #746A5D",
"-  c #796D5E",
";  c #7D705E",
":  c #6F6A61",
">  c #766D61",
",  c #796E62",
"<  c #777066",
"1  c #7C7265",
"2  c #777168",
"3  c #7D7469",
"4  c #7F7568",
"5  c #7D756B",
"6  c #7F786E",
"7  c #817464",
"8  c #817567",
"9  c #867766",
"0  c #887764",
"q  c #837867",
"w  c #837668",
"e  c #81776B",
"r  c #80776C",
"t  c #83786B",
"y  c #847A6B",
"u  c #81786D",
"i  c #847B6E",
"p  c #857C6F",
"a  c #887B6C",
"s  c #887D6F",
"d  c #8C7E6E",
"f  c #867D71",
"g  c #857D73",
"h  c #897F71",
"j  c #8C7F71",
"k  c #8A7F74",
"l  c #8C806F",
"z  c #898072",
"x  c #8D8071",
"c  c #8B8174",
"v  c #8C8374",
"b  c #8F8476",
"n  c #8C8578",
"m  c #8D8579",
"M  c #8F887D",
"N  c #908271",
"B  c #958977",
"V  c #908678",
"C  c #928779",
"Z  c #948878",
"A  c #958A7A",
"S  c #948A7B",
"D  c #978C7A",
"F  c #978B7C",
"G  c #998C7B",
"H  c #9E917F",
"J  c #A0927F",
"K  c #012A9D",
"L  c #117AFE",
"P  c #0083FF",
"I  c #0889FF",
"U  c #0092FF",
"Y  c #0F9BFF",
"T  c #0FA4FF",
"R  c #21AFFE",
"E  c #34B7FF",
"W  c #5BA5FF",
"Q  c #5AB9FF",
"!  c #63B1FF",
"~  c #76BBFF",
"^  c #3DC0FF",
"/  c #57C8FF",
"(  c #62D2FF",
")  c #75DAFE",
"_  c #9D9384",
"`  c #999288",
"'  c #A29483",
"]  c #A89988",
"[  c #ADA18F",
"{  c #81CDFF",
"}  c #91CCFD",
"|  c #8FDBFF",
" . c #95DCF1",
".. c #ADD7FF",
"X. c #84E0FF",
"o. c #93E3FE",
"O. c #A5E8FE",
"+. c #B9E4FF",
"@. c #B3EDFE",
"#. c #BBEBFE",
"$. c #CAF2FE",
"%. c #DCF4FB",
/* pixels */
"1 i z - 3 g 3 $ 3 3 u - u e 1 3 1 $ > p > = 1 u u u 8 8 1 1 + = 1 t , 1 1 1 $ 1 e & # p , 1 3 3 1 > y e O - 1 O , 1 3 1 * t u 1 ",
"1 = 1 > u i 3 > 3 3 1 u e # = p = = < y t 1 - > i 8 8 - - 1 & # > h 1 , y - , > = = 1 1 # , t > 1 1 j 8 # , 1 O > 3 1 s > 1 e e ",
"> , - y s i 1 > - 3 - z $ = * 3 3 3 = s = e 1 = 1 - 1 9 > e 8 1 3 b i 1 p , i e * & s b = 1 1 $ 1 e i t = 8 e * $ , > Z e * , 1 ",
"1 3 1 Z z s & - , 1 , x # * , , > i * D y u 1 b , 8 h N e 1 1 e x m t 1 e 3 3 x e = d k > 3 1 1 > > 1 s 1 8 e j 1 3 > V a - u h ",
"i t 1 x e = - ; a e , e 3 1 - = 1 p - h 1 1 1 r p 1 3 t c 1 1 = t i > h 8 1 * e i h 3 h 3 3 e e 1 > e Z 1 1 8 e b h 3 c h , h u ",
"1 = , 1 e $ $ - = > * u e 3 e t e 3 - 1 1 8 > 1 e = - i - , y - * - 3 z 8 e , > 1 3 , x e = = i 3 > 3 b e , 1 u 1 3 = 1 1 > > $ ",
"u z 3 > 1 # = > > = 3 Z 1 > u 3 = $ > i e 1 > 3 e 1 > 1 * 1 1 > 1 > 1 i i t > > = , i s p 3 , t 3 1 $ x 3 > = s 3 3 $ $ , % = * ",
"e i , 1 , = 1 1 e = i V = > > % i > 3 h 1 $ , 3 = , 1 3 e u 3 i , = , = 1 1 1 6 - 1 = y b y 8 i # 3 e V - > 3 i 1 1 > 3 t 3 h 3 ",
"e 1 z 3 1 1 , > 1 > u s = > = > t , 1 i , # , t * * 3 p , 3 3 e , , y = p 3 > 3 , # 1 9 , > $ 1 * 3 1 i = 1 > > > > 1 g , h 3 3 ",
"= , Z g * t 1 1 1 u e s 1 1 u 3 u h p u 1 # * e , - > g $ r = - 3 , x y e * $ g 3 * - * + 1 $ > 1 > 1 r 1 1 e 3 = 3 h t h y 3 , ",
"> > u d + > 1 , e c i N 3 g 3 > g b i i > , 1 t e 1 * 3 > i 8 8 < > t 1 @ 1 p c 3 = = - # i > > t t u c > = e 3 > 3 = - i s h , ",
"e 1 = y = $ = > = % 1 Z = 3 3 g x i p 8 = x y y g < = 3 e e 8 t - , 3 3 > e e , 3 1 , s , y , 3 e y e h p 1 , u h t - = e x e > ",
"c Z e s i 3 > 1 1 > 1 b = $ > g x 1 1 * , y y , e - 3 e 1 , = # 1 , 3 e 8 e 1 = > e , h * = * u , e e , 1 1 3 1 i i 1 1 - 1 3 = ",
"u 3 1 8 y e > 3 1 u 1 3 1 > , i y = 1 , > 8 3 , 8 > 1 s h * = * - = i 3 e 1 e 1 = 1 = g g * 8 V = 3 1 1 , r i > # t 1 t 3 > 3 3 ",
"= u , 1 , t = * = i 1 1 1 : % i y 1 y x 3 1 $ 3 1 > , V h $ 1 u i 1 h - 3 - 3 > 1 = = m h , 1 i - > , e > , = 1 1 x b p i > * g ",
"= 1 1 z = u = = * , 1 3 = > > e 1 > , g 1 , O = > - = t 1 - > p V > 3 y * * 1 1 e * , i * > 8 t % $ 1 > = # = b y , e s 1 3 = 1 ",
"- - 1 b 1 , h Z 1 1 1 1 1 1 g 3 = = , 3 1 1 = 3 > t p 1 1 , = = i = = x = > > 1 1 * = s , $ = $ % 1 1 i i = h b = > 1 8 # e 1 - ",
"3 % e s 1 , m h 1 g 3 u 3 g c 1 , > r 3 1 g 1 1 u i y e 1 1 - 3 1 , - Z 3 , , 1 = 1 , y e g < $ $ , , u e , e p , = > y = h - 3 ",
"- * g Z , 1 m g 1 1 , Z p c u u 1 m Z 1 t p 1 e g p 8 e e 1 = u = - = x % = h 1 1 h 3 s , c p = - * 1 , > 3 = 3 3 1 > B 3 1 # 3 ",
"p 1 b [ y y g Z y > 3 G s 1 e Z e p e e x b e s Z 1 1 K K K K K K K K K K - 3 1 , e 1 e > h e i y = 1 e a i i b i p t y > , - c ",
"p 3 1 G i 1 1 b p t Z Z = @ 3 Z h y b u b h i 3 K K K %.%.%.%.%.%.%.%.%.%.K K K e 1 , > O $ > > y i 3 h z u 1 h g t t 8 - * , 1 ",
"3 3 e x y > > 3 z 1 1 e , > 3 g g 3 h 3 g 1 1 K %.%.%.%.%.%.$.$.$.$.$.$.$.$.$.$.K * > = = # e s $ 1 1 i z u - 1 3 1 e e s , = > ",
", 3 g c b 1 , 1 c i , > y , 3 3 3 3 p s e , K %.$.$.$.$.$.$.@.@.@.@.@.@.#.@.#.@.@.K u = , e 1 i = 1 i e b 3 # - i x b s s u 1 1 ",
"e 3 3 x e b i > * 3 z > t r 3 e u 3 g F s K @.@.@.@.@.@.O.O.O.O.O.O.O.O.O.O.@.@.@.@.K > > e e i > > 1 z t 3 * h 3 e p d i 3 1 1 ",
"h e e 3 1 c h = @ % z > 1 e , e c e i Z K #.O.O.o.o.o.o.o.o.o.o.o.O.O.O.O.O.O.O.o.| | K s p e y 3 1 1 y * i 1 b 1 3 p N z > * = ",
"g i u 1 % 1 > = 3 > , > 1 1 y p e 3 1 K @.#.o.) ) ) X.X.X.o.o.o.o.o.| X.X.) ) ( ( ( { ( K i > 3 1 = , 1 * g 3 3 3 = z z g , , u ",
"1 e e x 1 e , 1 b s 1 3 u , z s 3 e K  .O.O.@.) ) ) X.X.) ) ) ( ( ( ( ( / / ^ ^ ^ { E ( ) K * , , + , m = i , > 3 $ 1 Z h h y b ",
"x 3 e H s 9 1 x z x e y V e y 8 8 K  .o.o.o.o.#.( ( ( ( / / / ^ ^ ^ ^ ^ ^ ^ E E { T Q ( ( ) K t , e > b 1 u = 1 c , 3 ' x l e Z ",
"x x t h t 1 = > s y e s > $ 1 - 1 K X.X.X.X.X.o.%.$.+.| { ^ ^ ^ ^ E E Q { { { ~ ~ R E ( ( ( K e i t 3 c i > , > ` V e V e > = z ",
"3 1 , 1 1 i , = > 1 * e 8 1 , $ , K o.X.X.X.) O.O.@.$.$.$.$.#.+...} } Q T T Y P ~ R ^ ( ( ( K > > 3 p i 1 * > > g g 1 3 i $ , 3 ",
"i e e r 1 1 e , 1 , # e Z 1 # X 1 K @.o.X.) ) @.o.o.O.@.@.O.O.O.~ T T T T Y I I Y ^ ^ ( ( X.K t , 1 i = 1 , # $ 3 = 1 3 h > 3 i ",
", > , 1 3 e u - - , # Z y 8 = = e K %.@.X.) o.o.o.o.o.o.o.o.o.o.~ T T T T U U U U Q ^ ( )  .K , 3 * - 1 = 1 , = e 1 t s e , g 3 ",
"= , # = , e = , 8 = = x = 8 1 3 1 , K %.O.X.O.o.o.X.X.) X.o.o.o.~ T T T U U U U U T ^ (  .K 1 1 1 * > x > * 1 3 3 3 e s 1 i , * ",
"1 g * > 3 , 1 = , , 8 1 # , e = 1 e j K %.@.X.X.) ( ) ) ) X.o.o.~ T T Y U U U U Y Y Q  .K # * e - 3 3 Z g 1 - = u 8 8 3 , g 1 - ",
"3 p u , e , h 8 * * s x $ 1 1 * 1 3 i l K $.O.) ( ( ) ) ( ) X.o.~ T Y Y Y Y Y Y Y T Q K # # # - < p > Z = e 3 = 1 , 8 d 3 h s e ",
"p c t a s 8 y x 8 $ d Z $ 1 1 1 > > > b e K { ~ { | | o.) ) ) X.} T T Y ! ~ ! W W W K Z * # * = % p = B s i i F y i x J b 8 e p ",
"1 y 1 Z y = * e e 1 3 t # 1 1 e , > 1 Z 1 1 K R T T R Q { { | O...! ~ W P L L L I K = h p - = = = t = x b 6 i b b s y b F , , > ",
"* - 1 h y # > 1 $ # > , - # * e 1 = > s 8 = = K R R E ^ E R T R W L L L L L L U K = # u s 1 8 e 1 1 * e h e 1 1 1 h y h 1 , t - ",
"3 > 1 y s * # 1 # * 1 = 1 # 3 3 * 1 O j s = $ i K R ^ ^ ^ ^ R R W L L L L P Y K * $ 1 F i = 1 1 * $ $ x 3 > = t * 1 1 t = , > * ",
"> - 1 1 1 8 = , + = = * - * i 3 $ 1 3 G , $ , s 1 K ^ / ( / ^ E W P I I I T K 1 1 = g F 1 = > % e , u Z 1 = 1 1 # - 1 1 3 1 1 p ",
"* , s = , , = % 1 > - 1 * 3 , 1 u u 1 t & $ = > > > K ( ( ( / ^ W U U U T K 1 > 1 > u z > 1 , 1 e = e k 1 = , i 1 = 3 e * 1 1 1 ",
", = b y 1 $ # > u h * - # 3 1 - > X * 1 , > > 1 = 3 z K ( ( ( / W Y Y T K u 1 3 > 1 e s , e h h t e i g 1 * * i 1 1 < 3 O 1 * * ",
"> , e x 3 , 3 , 1 3 - s > , 3 * 1   = e = = 1 e 1 , * - K ) ) ( ! T T K = 3 1 1 1 3 i x - 1 h y 8 i i b 1 8 t p u e > 3 = e 8 8 ",
"1 e p x e 8 , = , 1 i s 1 e a = c - 1 m g 1 * u h e & - x K ) ( Q T K x = % > , 1 g 1 V 8 8 e y y 1 y y 8 N l x p 1 e p y e y e ",
"t t h c y e * $ , > 1 t , 3 , = p x 1 1 1 = $ , s s = 8 8 3 K ) Q K p x 1 , 1 1 i 3 = x 1 , 1 > h i 3 # 1 s p 1 8 1 b p 1 1 * + ",
", , g i z 1 t p p > % 3 x , = = 3 3 > , * 1 1 = O , = i s 1 3 K K g u x x 3 1 e b 8 , 1 x 1 9 e e 1 8 , 3 p u e s 3 t p 3 # = = ",
"i 1 g > i 1 z 1 e 3 3 3 p = , g , 1 $ 1 = 1 s 1 = i u t x > - g 1 c t p j 1 - > i y 1 1 Z u 8 8 s > 8 b y 3 = u e , 1 Z t # 1 i ",
"Z > e y * > 1 = = , g i t 3 1 c z 3 = * + + p > e - 1 s 3 3 1 3 1 e e Z e > , , 1 - t p e i 1 - t , 1 g 1 , $ 1 1 , , t , $ > e ",
"h , , B > 1 > 3 3 + 1 x 3 3 - 1 = t > - e 1 i 8 = * e s # e t - - = , s 1 , g e 1 # e Z 3 e , = 3 > 3 e 3 1 1 u > t u 3 1 - * $ ",
"e e 1 Z 3 1 3 1 1 # 8 p $ $ 1 e # # # $ 1 3 1 e > * > s % h , 1 3 $ 1 8 8 1 e 1 e 8 1 p , e e 3 , , i 1 e h 1 1 t e 8 e , > - 3 ",
"- 1 1 d > 3 V e 3 > - x e 1 i u * = p 1 > 3 = 1 1 > = B 1 1 O * * * u N , , u 8 e , 3 x - i h 1 1 b c 1 g u , e h e 8 s 1 , = i ",
", - > B 8 y z i 1 , 1 B z e b 1 > = 3 y t e y g i y 1 B = * # e 1 * h ] 1 1 3 Z s 1 V G 0 - e , 3 t 3 6 c i 1 y x 1 s G 3 > 1 u ",
"1 t , a Z 1 u 8 i , , 3 > 3 1 = g y t h 8 3 > = t 1 1 Z = + = - 1 = , N 8 = = x h e y 8 1 $ # 1 u t c 3 h i 3 1 s d - v t e , = ",
"- = , 1 V = 3 b 3 # = = , , > , , 3 1 e 3 , > * Z O = G y - > = = > > y - # # = e > # , - # = 1 3 - u > 8 = = - * 1 = Z V u > , ",
"$ # g 1 t 1 * 1 - 1 e = 1 3 , s # > e e 8 $ * = b $ # e a t 1 > * 1 u r 1 $ @ $ 1 = > e * * = # = = 1 1 - $ = - $ 1 - Z x , * u ",
"1 1 M h 1 e $ 3 t t 1 > 1 > > 8 - * 1 Z 1 3 e = 3 * * s 8 > , , 1 1 3 y = 3 3 * # # , e = 1 $ X > = 1 x 3 , 1 - * = - N 1 > , $ ",
"= + p Z = t # & t = O > p e , e 1 > 1 H 2 1 h = = > 3 N e # # $ i 1 r 3 , r i # # = = , , 1 = * 3 1 3 l 1 1 - , , 1 y N $ , y 1 ",
"# O t s 1 y = * 3 1 * = 8 e * 1 , = 1 V , u 1 > e > i y , # = 1 i e h 3 % = > # e = = = > , 1 t , 1 1 a 1 = 3 1 > > 1 x - 3 b z ",
"# = 1 s e s 1 , = = 1 - , = $ , - # > _ 1 3 , 1 1 * $ i 3 1 y b , 1 h Z e 1 , = u 3 1 = > , y 3 1 3 - a = = r * e % = Z = - V p ",
"& 1 , y l d 8 1 3 1 e 8 - 1 8 p - e 3 _ y e * , g = % N x i 8 Z y , y G x 8 e e 3 h 1 - 1 = - = , 8 - y # = 1 1 t $ 1 _ u 8 1 1 ",
"= N 1 - t * = y b h , 3 1 = = 3 3 1 u V u 1 1 > ` c 1 e 1 1 # i 1 s y h e 1 * = e t = 1 > = - = , t - i = > i b 1 $ 1 _ t > $ - ",
"t s * * g $ 1 1 1 1 # 1 y - $ > = 1 t p 8 > 1 3 g 3 , * - # & , $ e = = , e = = - , O , , 1 = $ > 3 # 6 1 u u = > 1 s 8 8 $ $ g ",
"m = = - 1 > y e t 3 = h y $ , 3 > 1 e - s 1 = > 3 = , , y @ * , 1 1 , 1 , > 1 = , = # 1 i , + + 1 i # > y p * # * g G 3 8 = * i ",
"= # > 3 y * * # ; # & 1 & # 1 # * & # & & 3 - # 1 - - - - = & $ 1 * = - , - 3 $ # & # e 1 = o X = = 1 q & y - @ * = - = & , - . "
};
