/* XPM */
static char *result[] = {
/* columns rows colors chars-per-pixel */
"64 64 58 1 ",
"  c #473B39",
". c #4B3D3B",
"X c #4E413E",
"o c #50423F",
"O c #71693F",
"+ c #524541",
"@ c #574943",
"# c #5A5146",
"$ c #5E574C",
"% c #645B4F",
"& c #685E4E",
"* c #665D52",
"= c #695F52",
"- c #676056",
"; c #6C6255",
": c #6E655A",
"> c #6E685F",
", c #716556",
"< c #71665A",
"1 c #746A5D",
"2 c #796D5E",
"3 c #7C705E",
"4 c #6F6A61",
"5 c #766D61",
"6 c #796E62",
"7 c #777066",
"8 c #7C7265",
"9 c #777168",
"0 c #7E7569",
"q c #7F786E",
"w c #817566",
"e c #887764",
"r c #837867",
"t c #817669",
"y c #847A6C",
"u c #897D6E",
"i c #867D71",
"p c #897E71",
"a c #DFBD00",
"s c #F5DB38",
"d c #FFFF3A",
"f c #8C806F",
"g c #878076",
"h c #8C8273",
"j c #8D8579",
"k c #8F887D",
"l c #928575",
"z c #958977",
"x c #928779",
"c c #958A7B",
"v c #998C7B",
"b c #A0927F",
"n c #9D9383",
"m c #999288",
"M c #A29483",
"N c #A49A8A",
"B c #A89988",
"V c #ADA18F",
/* pixels */
"8ii50i0:09q2y0706:5u5>8ryyww88=18y6868<8w,;w5wtt5>tt*5w*5ttw:ttw",
"8165yy05008y0,>f157rq811i0w218,,5p82y1655<ww;5t5twpw=ww%>twp1wtt",
"565yfy82582f,1,8081u1t81828e6tw80gu8p6yy5,pp1ww:wtit<wt<:55xw:59",
"808xfu:8772h,,735u<vry8j2wuft88yhjy8ttwpw6pp1ww5>1wpwwtpww6jtwti",
"yy8h0513yy8r0821wi1p060tu88yh081yu5p66<typwpt8tt96tcttttpitip6pi",
"01580::112:q00ryt6166t58t16y16r1<1wptt568w5pt<5yt1tpt5wttt:ww<5;",
"tp058;15110c87yq5:5yy81tw668<885616pyt5616iui86ytw-pt55it9:>w:><",
"ti582188y1yx>11:y50p6<68166wwy8i5151090y1w6ypywy-ttx55ttw9>wttit",
"t6p0066585tp<555t68y6=6y1<0i300r66y1i8596;6y65<6<w9i175155wi5ptw",
"15cp<t608qtu86q0ipuq6:<t815y:y11w6uyt1:it<1,=8:5w19tt9tt>9itptw6",
"66yu=5660gyl0i96phyy668yt8,01uww65e8:6ipw211;y54ttyj11tt5t:wypi6",
"t81y1>451>8z500ihyyy1peui710008q16ww5tt866wp6y6ttttyyw6tit6<tpt6",
"jxtpy956050j>:5ipw6<6yy6y1yt821;860ywt015t8p<5<y5tt6www9ty6w6t9>",
"tq6tyt586y60556yy<865t06w18uf:1>11ytt8w8<w5pi:tp5t5t9tt5=twyw5tt",
"1y666y<<4y90644ty6yh88:0855zf:8yy9g10101855pp6wu555t561ttpppt><i",
"1w6h<t51<680155t862i86*1511y817ux5tr:<88t<6y<5wt:;w51;1py7tp9w1w",
"216h86pv6w59w6iw115t555t5yy887<1t<wp1>56w11p5:1:>wwtt>pj1www-tw5",
"t<tu86jpwi9i9ipw65ttti5wyyyy8810w<wvt95w:1wtti9::55ttwti5:1y>p5w",
"1<uv66jiwtwxiptywjkwyp5tuuwrq8:y1w<p:1ywwyti9py15:w5>t5ttw5xt5=t",
"p8hVuyict1wvpwtxtyttpptil80zy88q<=<p61wwwt7y5ptut>wtiitptity5w5p",
"u06vyw6jitcp1-tpptxtxpttlu1l0t6<ww<ep1w1tw65*:57yytiiiwiitye5=ww",
"0ttjy550p9tt95tiitititww2r2ch05<:=:1p-1t5:511;ty;wwigt5wtwttuw>:",
"50ipl959pi55twt9ttpit55w<r8zh5,8=%w1w:-1:wt<5ywt<wttjt=5tpppitww",
"tttptpi4>tp5ttttttictwt6<68l81,=1wkiww=5wtw55ttyw>wptw<pttupy9w5",
"pttt9pp1->p56t6tptikytww99ip<,11<*pn1y:<yt=6uyttt9wt1twpwtppp111",
"iyt6:751t5959wtit9wttwtyt>ep21yh>*ppti1wut7wyu5w611w:i9wt:pppw5t",
"6wypww66pp9wy6ptttwtwwp9y<<p:<vl15wpttww66uw85<w6*9x1iw5t;5xppyx",
"hwwMuwwpppttktewtetp1ttty<7B20phwt9ppwww7wppw7tt1t5pwt:9gwtmpptx",
"lpypyw55putpw;w1wywp11yxt:tN:532ulue679wpytc65wtittpt6w5mxtpe61p",
"08686i556w<twww;6t>gytt617uu55OOO&y2:5-wpy5yyw:16tiyw<11iiwti:6w",
"ytty88t6w1=ypw=*wt>yxp1*<tpw6OssssOO&e7wyi6wt1>y5wy1w<-:t1wti5tt",
"6556wtt51w;ptt11wwyp1pt565yw&dsssssaa&6:1iwwt6t5w<1w>ww:twtpt6it",
"56;55y56w11f183q06he=6y;81tOdddddaaaaO165161yy660<5h5>880twu8y5<",
"6i<5w66162ew:7018tpr:8r;808OdddddaaaaaO56<w5t;<t509lp611ywew8u05",
"qut6y1pw<1uh<88,80yp8pf2<1OdddddaaOOaaO:5<wp,,=57u5z1t0586wu0uut",
"ipeuuwypw;fl:888555ltyuf38OddddaaaaOaaO,556p<=11>u1zuyyvryubjw0u",
"8r8xy<<0y8ty:78q656x8818hfOddddaaaaOaaO,tw1pi5:51t1hhtyhjurjc281",
":18fy:50:;563;<r955p0>105&ssdddaaaasaaO1,5,yu6wt88,tpt988fyf81y1",
"w18yp<=9:<818-q0<8*pu1:u8OssssaaaaadaaO1<<8xy2w8<::p05<t,88y1111",
"11886055=11<1:f0=8tv8:5u8OaassaaaaadaO8865in655406yv6568:188088u",
"<8u2161<8118,028ii6y<<<55OsssaaaaaddaO8285yh5666t5tp816u8100<888",
"8<lr8;=6yh<3;q825%<9555w<OssssaaaOdaaO8018tu6tppytyp8<<y0890*8:<",
"16yh0606801f32016#5t416t8OssssaaOsaa&w886qih2wptwyyp8wwuyq18<twr",
"80yhtt6158uu80y1p56li61tueOsssaaaaaO5<568i6xwttyywyywlhpu7ruytry",
"yyipyt<:557r806<yh6865:5yp2&aaaaaaaO8688y01pwww5pyt=8uu8w8jr63<;",
"57iip8tyu5>0h8<10t56<011*6<yOOOaaOOgh00tpt5tu6ett6t60ut0u0yu0:11",
"u8i5r8f7y0t0r11g50<656u61yyyp65&Ogyup616iy06lywwu5wpr01y088ly;8r",
"x5tr158<15uyy06hh011==p6t2wuww7w8wwzy66685yyyy66y6wp77:0855y1:5y",
"g82z18108-0h00181y56t7yt<1tu=yy6556u86iy6=yl8t55w5tt006t6yy066<:",
"008zq0078;ry::0w;=;:7twt5:5u:p56t;wyt8w8twwu6tww66i6tp06ttwy6560",
"188u18xr051hq8yr>1yw5t17ww<pw6%<:,tp65ywt6wp2ypw0pp8iy6tpttu861y",
"226z0yfy888zhtj851wytteiypep5<;tw<uBw8ipu6xve6t60y0ygy8eh0uv050t",
"8t8yz8y0y6205081ittptt5>twwpw*15616pw54pptetw,;6i0j0pyt8uf2jy051",
"1118l10jt;1158566t9tw751p%<ne......u5==5t5,61;1605y5w511,w,zli55",
"<;i8y8:818y1805h:6ttw;;<p<:++ooX..++o:::855t1,<=41685<11,82lh71y",
"88kf2q:8rr81875w1:wv9wt5y1>++oXX+.++.005==6w56<%55wp66w1,11l816:",
"<-yl1q,,y1;2yq3w656n60p511w@o ..+++ooty=:>165w1108wf832388rl:6r8",
":%ru7y1100,1rr:86<wx9t84twtuw..++++w455=t11155we280r8100518h28hh",
"&17urf831<818<:85;5m8w5ww:<twwupwwylt885y08155yw301f11q>0:1l12xu",
";87rff3808rr28wr5twmyt<6i<1ppttpt6yvpwtttp66w121302r;188q:8ny058",
"2h82f:>yhg308120wwyjy7w1mpwtww=twitpww:1ye<811212y1u,2yh8:8ny1:1",
"rf1,q,8378;8r1<1<7tuw56wyt6:1=;w:t1:6t1112*668<:20:q70y118fr8::f",
"j11182ryy0<ur:6w5wt1uw16w<66w=:wwwwww1w161;wy6=&8r;5ff1->fv88>:f",
"4=20y1,&3&,w,;8;<,,,,w1*w11ww<=-w-1116w;=,,t61&%1<7r,r1-<131,21$"
};
