/* XPM */
static char *result[] = {
/* columns rows colors chars-per-pixel */
"64 64 58 1 ",
"  c #473B39",
". c #4B3E3B",
"X c #4E413E",
"o c #50423F",
"O c #71693F",
"+ c #524441",
"@ c #5A5146",
"# c #5E574C",
"$ c #645B4F",
"% c #685E4E",
"& c #665D52",
"* c #695F52",
"= c #676056",
"- c #6C6255",
"; c #6E655A",
": c #6E685F",
"> c #716556",
", c #71665A",
"< c #746A5D",
"1 c #796D5E",
"2 c #7D705E",
"3 c #6F6A61",
"4 c #766D61",
"5 c #796E62",
"6 c #777066",
"7 c #7C7265",
"8 c #777168",
"9 c #7E7569",
"0 c #7F786E",
"q c #817566",
"w c #887764",
"e c #837867",
"r c #817669",
"t c #847A6C",
"y c #897D6E",
"u c #867D71",
"i c #897E71",
"p c #DFBD00",
"a c #DEBD1A",
"s c #F5DB38",
"d c #FFFF3A",
"f c #8C806F",
"g c #878076",
"h c #8C8273",
"j c #8D8579",
"k c #8F887D",
"l c #928575",
"z c #958977",
"x c #928779",
"c c #958A7B",
"v c #998C7B",
"b c #9E917F",
"n c #A0927F",
"m c #9D9383",
"M c #999288",
"N c #A29483",
"B c #A89988",
"V c #ADA18F",
/* pixels */
"7uu49u9;7992t9795;4y<:7ttt9e57*<7t5777;5q>-q4qrr54rr&4q&4rqq;rtq",
"7<540t96897t9;:f<<6y97<4t7e<47>,4i55t1544,qq-4r4qqiq*qq$:rqi,qrr",
"454tft71<7<f,,,799<y<97<112e1re79ht7u5tt,>ii,q8;rrtr,qr,;44xr-48",
"797xfy;7776f;,624t,vtt7l1eylr77rhjt7rqqiqqii5qq5:4qyqqryqq5xwqri",
"tt7h94<2ye6t77115u4i959ry7qth75<ty4iq5,rriqi9qrq84rcrrqriirii4ir",
"9<479;;<<1;0e7etqq155q47r,4t<5t5>4qiqr555q4ir,5tr,rir4qrrr;8844;",
"ri947-<4<<9c76t93,4tr9<rr545,774545ytr44<quiu75tr8;ir4:ur8;:4;4;",
"ru471<77t<tx:<<:t49i5;5e45qqrt7t4,53998t<q4titqt-rrx44rur44rrrir",
"r5i9755474ty<434r57u5*5r<,7y799955t,u9475*5t55,5:q8t444343qt4irq",
"45xu:t5970rt57r9uiur5;,r7<4g;t<1q5lwr<;u9:1>*5;3q45uqqrq:8yrirq5",
"54ty*4559htl9u94ihtt557t97,7<yq955t5;5uhq<,1-t43rrri<<rr4r:qtii4",
"r71t4;34<:7x499uhtte<iwyg6,7t77t<57q4rr55q5i5qqrrrriu84uir5,tir4",
"hM7yt944949j:;4uiq5,5tt5e<te27,-759t7r744q5i,4,u5rr8qqq5ur8q58r3",
"t95qtq,95r78444ut,754r95e<7yf,<;<<t9t7773q4iu,qi,r4q5rr4*qqrq4rr",
"<t555t,,4t9973:rt5thq5;9744xg;7tt7u47<e4744ii5qu455r58<rqiiiu<;u",
"<77h,t4,:479,44r755u75&<4<<t7<6tc49t,;77r,5t,4qr;-85,-4ir8ru4q<q",
"115h75ivq548q4ur<:4r48:r4ty777<<q>qi,3355;<u7;3;;4qtr4ii44qr&rq<",
"9;ry75jiqurrruiq55rqqu4qttt976<9qq<vr55q4q4trt5;;q4rr8ruq:5y4u5q",
"<,yv59jur8qiuiuuqjkqriqryyeet7<t<q<y,<uqquru5iy<<;r43r4rrq4ir8-q",
"i7hVttuxw4qmiqrirtrriirrx77zt679,->y44qq4q5t6irtr:qriurirurr554i",
"y97vy77hyrci:;rjitgrxiuqly<h7t7,4q<qi,q4qq44&334ryruirriurwr<-5q",
"99rjt449i8qr548uuririr4q<e2ch9<,>>,;i-4qq,4<4*tu-qqtgr,qrqtryq4,",
"59uil848iu84r5r48ryyr45q,e7ch4>7*$q4q3*,,qr,5r5t:qrrxr-5riiyirq4",
"q9riqiu3:ri4rtrrrricuqr5,72l7<-=45xi8q*4qrq45rttq:qirr;irruytrr4",
"itrq8ii<&:i45r5rirujtrqq88yi;><<3&iz4t,,uq*7uuqt88qr;rqir8iii4;4",
"utr5;84<r4848qrirrqrrrttr<ri2<yf,$tl9i45tt55tu4qq44q4uqrr4iiiq5r",
"5qrlqq55iiqqt5iyqr8yqqiqr;;i>,vj51wxttqq45wqq,,54*qi,t84q;5ciiri",
"hqqmyqqiiirrxrrqqwri,8tru;qB<w%O%O5ii9q7q5uiqqrt4q8i5u,8i88Niyrm",
"hititq44iiti5;q,qtqi44rxq;wBOOssssOO5585irrM545rtqrir554Mxtir44i",
"9q587t544q,wr5q-4r:grrr445OOssssssssOO:rit5ttq;44quiq;44uuqrt;qq",
"trqr77r4q4-tiq*$qu;rxi4*;OssssssssssspO5ti5qt,4r4qu<54-;q4qqi4qr",
"5457qrr4<4-iyr,4qqti4ir:%ssspddddpppspp%<iqqr5r4q,,q<q5<r5rir5tq",
"45-44t45e<>f<97955it&5t;OsspddddpppppppO<<72tt767,<f4;7999ey7t5,",
"5u;4q57,15ew-1e<qtyt,5t*OspddddppapppppO2>727=,t<99lu7<<teqe5y74",
"9uu5q4ue,,yh;77;5rti7yhOdpddddppppppppppO<5y;>-<6t6z499<727y7iyr",
"uhrwywthe,fx:797544lrtyOdddddppppppppppp%15l,-,<:f<zyttvetfnl7ry",
"7t7lt,,9r7rt;679545z574OpdddapppppppppppOw<yy43,<9<fhtthhytjM17<",
";<7ft;49;-451-,e833ue<<Odddppppppppppppp%4>ty5qr77;eh9757fty<1t<",
"747ti,&9;,7<7-90;7*iy<;tOdpppppppppppppO;;qxt4q7,;;h74<t,77t<4<<",
"4<275944&<<,<;f7;qqb5:4yOpppOppppapppppO73im5<4397tz7<56;<77777y",
",7y115<,74<7,767tt5t,,,42OpppOOpppppppO774rh4557r4qi7<5y7<99,777",
"7,he7-*4th,2-t714$,5544q<%ppppppppppppOe17ri5qiitrtu7;,t9769&7;,",
"<7eh959577<y119;5@3t335r58OOpppppppp%O7789ti5qitquuh7eeytt<6<7ee",
"79thrq5447yy79f<i4qiu7,rir>1OOppppOO,:459u5cqqrtt7tw7lyhy6tytetr",
"ttghtq,;467t794<th5753,5yy<eeqO%OOyh7479tq3iw555iuq-7yu597hy57,=",
"<6uti7tty4:7h4<<9r55,q5,*5,tt5e9uirhh99riq5qi5wrr5r59yt9y7ty7><<",
"y7t4t7i6r9r7t<4u59,545y5<ttth44u7ityi554ut75ztqry4qit7<t977lt-7y",
"c4rt,47,<5uttr5hh7<<**y4t47y795q7ercr55574tury55e5qi76;7764t<;<e",
"u76z<7479=7h79174t45r7uq,,ry*rr55,5i75uq5*wl9q5,q5qr978t5rtq54,;",
"997z07987=9f;;7e***37rqq4,4y,i57r;qtqqqqtqqy5rtq55t7ri95rrrr554r",
"127y<7jt941f99yt,<ur4845q5,iq5&,,;ri54tqr5ri<tuqrii9ut5rurqi74<u",
"111z7yfy777xgth64,qrrrtuuwqv<>-qq>uBq7uii5xvw5r50r90iy5ylquvq49r",
"7r7tz7t7t277477<irruqq53rq7c<*445<5iq33iiwtrq>*5rtiruuq5yy5hr954",
"4<<7l<9jr=<467455rqrq84,i$,mw5....1y4*-4r3-54>,904t4q4,1>7<vxt44",
";=u7t6,7<79<797y;4ryq;,,i,;t+ooX..++7;;,q,4r,,,*3<q5<,<<>21lh4<t",
"77xh19;7et74744e4,qi8qr4u,,+oXXX.+.+.r9,--5r,q,&33qiq4q<,<<l741;",
"<=yx<t;;t<%7ye77745m59i3,4ri+ ..+++o5rt*;3,55q1,979f771277tf,1t5",
"-$9y6e1<77,<7e;75,qx5r73r5yw5;.+++uq334;r,<1445t277e7<774<7h1ehf",
"%<6y9f71<<7<7<;7<-5M7r49q;,yrqyiqqixrq8,u97,45wq77<f<<0<9:<l<1xu",
">71eff2279ee<27y4tqMtr,5i,,iitwit5wviqrqri51q,412q1e-<779;7mt777",
"<l2<t:,fhf777<<eq7tirqq4Mi8rqq$rqyryqq-4te,7<<1<2t<y<<th6:7mt<-<",
"ef,:t;2767-7e1;447ruq44qurq,4&-q-t,,qr4,11*557,>49-079t<17fe7;;g",
"j<<176ett7,ft>5757q4yq,4q<44q-;5q4qq4,q,5<-7t5=%7t-4tf:-;fv7e:,f",
"3*19e<>%2=,2>>7=>>>>-q<*q4>qq<-;q:,,qqq-%>;e7<%$>,6t>e1=;<2>><1#"
};
