/* XPM */
static char *result[] = {
/* columns rows colors chars-per-pixel */
"64 64 56 1 ",
"  c #473B39",
". c #4A3D3A",
"X c #4E413E",
"o c #50423F",
"O c #71693F",
"+ c #524441",
"@ c #5A5146",
"# c #5E574C",
"$ c #645B4F",
"% c #685E4E",
"& c #665D52",
"* c #695F52",
"= c #676056",
"- c #6C6255",
"; c #6E655A",
": c #6E685F",
"> c #716556",
", c #71665A",
"< c #746A5D",
"1 c #796D5E",
"2 c #7C705E",
"3 c #6F6A61",
"4 c #766D61",
"5 c #796E62",
"6 c #777066",
"7 c #7C7265",
"8 c #777168",
"9 c #7E7569",
"0 c #7F786E",
"q c #817566",
"w c #887764",
"e c #837867",
"r c #817669",
"t c #847A6C",
"y c #897D6E",
"u c #867D71",
"i c #897E71",
"p c #DFBD00",
"a c #FFE900",
"s c #FFFF3A",
"d c #8C806F",
"f c #878076",
"g c #8C8273",
"h c #8D8579",
"j c #8F887D",
"k c #928575",
"l c #958977",
"z c #928779",
"x c #958A7B",
"c c #998C7B",
"v c #A0927F",
"b c #9D9383",
"n c #999288",
"m c #A29483",
"M c #A89988",
"N c #ADA18F",
/* pixels */
"7uu49u9;980<t9797;4t<<7tttt777%<7r575q;5q>-t5qqr54rr&<q&qqrq-rrq",
"7<54tt0<997tt-:d<<6t97<4t77247>,4i71t<554<q5*5r4qqyr-4q&:qri<qrr",
"454tyt74<7<d;<>707<y<97<217w1rq70gt7u5tr,,ii,q8-qrtr<qr<-44zr-48",
"797zgy;2677d>>624t,xtt7k1qykq77tght7rrqiw5ii4rr5:4qiqrriqq4htqri",
"tt7g9412yt7097115u1i957ry77yg77<rt4iq53qtiqi9qrr84rcrqrriu8ii4iu",
"9<479;;<<<;099eeq9155r47r,<y<6t<,1qiqr445q6ir,4tr<rir48rrr,qq,4-",
"ri947-<4<<7x76094;4tt7<rr7<7,774555utr45<5titr5rr8;ir44ir8,,4::,",
"ru471<77t<tz<<<:t49i5,5q4577qt7u5,44979t5q5tirqt*rrz44qrq84rrrur",
"q5i7775474ty<4:4t47u5-5t<,9y797t55r1u9487*5r5535;rqt,543444uqyrr",
"<<nu;r5970rt57t9uitt5-,r6<4u-t<<q5krr<;t9<1,*5;48<8urrrr:8ururr4",
"55ti*455rgtk9u85ugtt457wt7,94yqq45q7;4ug51,1*t44rrri34rr4r,qtyuq",
"r71t<:34<:7z499ugtyq<gtty6,7t779417q4rr77q5y5t5rrrtty54rur4<rir<",
"ixrut945949g:;4ug75,5tt59<tt72<-7199qr7<5r5i,4,r8rr4q5qqtr5q5q9:",
"u95qrr475t70444ur<755797q47yd,<:<<y9t7q7374iu,qz<r8q8rt4*r9tq4rr",
"<r574r<;<u7853:tr7rg77;974<zf>7tt7i<7<76q44iu5qtq<4r554rriiit3;u",
"<q5g<t,<,479<449755y77&<4<<t7<6tx40r;,77q,5t,4qr--4q3*4it5qi5r45",
"117g75ix4q48q8ur,<4q844r40y777<<r,5i4345q,4u9*4;:qqru:ih<4qq&rq<",
"9:rtq5hiquqr8uirq4rqqu4qttt976<9qq1c955q,55tru6;-44rr4ruq,qt:u4q",
"<,yc59hurqqzuiuuqhjqri4ryyqet7:t,5<y;4tq5iru5it44;q44r4rr44zq4-r",
"y7gNttuzr<rciqriqrrriirul77lt779,>>y44qqqr5r5urtr:qruurirurt4q4i",
"t95ctq5gurxi<=riirhrziurky<g7t7,5q,qi,54rr44&344ryruiuquyrtr4-4q",
"r9rht549i8qr84ruuririr4q<e2cg94,,>,,i*4t5,4,4*ru-qqtur4qqqrryq<<",
"5quiz848iu44rqr8rruuq4q4,e7xg4>7*$r4q4*,;qt,5r7t,qrrhr-4riiiurq4",
"r9ririt4:ri4rrrrrrixrqqq;72k7<>%4<ny5r*4qtq45rrtq:rirr,urruyuqr4",
"irrq8ii3*:i45r5rfrrjrrrq8qti;;<<;&ic4t,,ir*7iirrq8qr,rqirquii<,<",
"uur5;543r4858qrurqrtrrrtr3ri2<tg,$tzru45rt55tt4q5<4q,urrr,iyir8t",
"5rtgqq55iiqqt5ytrr4yqriqt,,i;,cl447itrqq45wq75,55&4h:u44r:qzyiri",
"g7qmyrqiiirrjrwqrwri,rrtt,5M27ddqr7iiq7qq5iiq5rt5rqi8r,qf48miitc",
"kiritq44iytyq-q,qrqi<4ui9;rM,15%OOy75585irrn545rtrrir444nzriw44y",
"97657t54<q,tr4q,5r<frrr445yy1OOaaaOO<4:9ir5tt9,45rttq,44utrqu,4r",
"trqt77r5q4-tiq*$5t,rji<&;riOOaaaaaaaOy57ri5qr44q58t4q<-;r<qri<rr",
"5457qrr4<5-itr,4rrui4ir<54>pppppaaaaa%4,4iqqq5r5q,<q<q4<rqtir8tr",
"45-<5r<5q11d<97955kt&5t-7<OppppppaaaaaO6<<75tt777,4g4:7799ey7t5,",
"7u,4q57<11q7-29<9qye,7t-7OpppOppppaaaaO<7,7<9>,r<99gu7<<tqqq7t71",
"9ut5r5iq,,yg;77>5rtg7tg1,OppOppppppaaaaO4,qt->-46y6k<r9471qy7yit",
"ygeytqtgq>dl:777544krtyd2OppOppppppaapsO145k,*,<;d<lyttxeyyvhq9y",
"4t7kt<;9r7rt;699545z76<7gOppOppppppppsssOq1it<34<9<ggttghytzc16<",
"<<7yr;47;-452->0844u9<<94%ppOpppppppssssO1*tyqqr77,qu9777yty61t<",
"7<7ti<*8;;7<7-99,7&iy<;077OppOpppppsssssO>5zt4q5,;;d9<<r;77t<<<<",
"5<775944*<<<<,d9*qqc2;6d77Opppppppsssssp%4ub544305tc7<75><77q77y",
">7y115<;7<<7,777tu5t>,<4444OpppppsssssppO4rg4555r4ri7<4y7<9r,776",
"7,ke7-*4tg<1;e7<5$,55455<8i%ppppOOsssppO57ru5qiirrtu7<,t9789&7,,",
"47rg959577<y<29<8@3t345r74,1Oppsssssppp%50ui5qiqrtrk7qqyt947;teq",
"77tgrr5<77ty79t<i4qit5<tir>1kOsssssppOO55u7zqqtttqttqgdiy6tttqet",
"9tuftr,;467t594<tg5784;4yy<qqqO%sspOO479uq4iq5q4itr>7yy797zt77<%",
"77uti7tty4:7g4<<0r55>75,&7,yi5erOOOgg99riq5qi5qrq5q59yt9t7ty7-<<",
"t7t4t7y79997y<4u47,517u5<tttg44t7gryi7<4utq5ltqqy5qit7<tt67kt-7y",
"z4tt,<6<<7uyt77gg7<,**u5r57y776q7qrxr55574rurtq1r4qi66;7724t1;<9",
"f61l46499=7g97774r54q5rr,,ty*rr5445y54ir5*tk9r44r4qr959r4rtq74<;",
"9e7l97779=7y;;77***39rqr4,4y4i55r;qyrrr5qqqy5rqq55t9ri95rrer54<9",
"177d<7jt945d07yt,4tq4945q4,l55&,;;ri55rqq5qi<tiq7hi7it5riqqy75<t",
"111lqtdy757lg0g75,rtrrrurywi1>-qq>uMq5rzyqzcw5q49t8tit7tz9uc949t",
"5r1yl7t7t149477<ttriqr43rqql<*44515iq43iyqrrq--qurh9iu95yd2gr954",
"<<61h<7h9;<<65475r8qq44;i&;bw54....y5**4r4;51>,594r454<4>7<xzt44",
";-f7t7;7<qt<776y;5qqq;,4i;*r++X...++o ;;q44r,,,-3,5q4>,1>21kh4,t",
"77jd27;9te74774q4,5n5rr4u44ioXXX+.++.or;*-5q,q>$44qiq5q4,<1d7<7;",
"<=tz:9,>t<-<de77745b67i4<<wio..o+++oXor*;:,55q<<979d771757td,5r7",
"-$9d6d<<77><9e;75,7x6r53qqttq;,++++q344;r<,444qr277w7<77447g1qgd",
"-;7yed7<<<7<7<;74*4b5r5qq--uqqtiqqtlrq54u95<45tq771d<<t;9;:k<1zy",
">7<edd2277ee<2qt4q5btr,5u<<iyryit1tciqqrri51q,1<2q<e-<77t;7bt777",
"1k210,>dgd777<<qqqrnr554ni8rq5*tqutyqq;,er,q<<1<2t<y><dg6>9bt<;<",
"9d,,d:9267-7e1,43rrtr4qqurq,4*;5-r,;5r4415*547,;49-07t0:<7de7-;f",
"h<<<7<tet7,dt,5745q5yq,5q,44w;,4qqqq5<q,5<-7t5%%7t;<dt:->dx9q:,d",
"3-29t>,%2-,2>-7->>>>-q1$q5,q<4--q-,,q5q;%>>t2<%$<,6t>e1=:<2>><1#"
};
