/* XPM */
static char *result[] = {
/* columns rows colors chars-per-pixel */
"64 64 57 1 ",
"  c #473B39",
". c #4B3D3B",
"X c #50423F",
"o c #71693F",
"O c #524541",
"+ c #574943",
"@ c #5A5146",
"# c #5E574C",
"$ c #645B4F",
"% c #685E4E",
"& c #665D52",
"* c #695F52",
"= c #676056",
"- c #6C6255",
"; c #6E655A",
": c #6E685F",
"> c #716556",
", c #71665A",
"< c #746A5D",
"1 c #796D5E",
"2 c #7C705E",
"3 c #6F6A61",
"4 c #766D61",
"5 c #796E62",
"6 c #777066",
"7 c #7C7265",
"8 c #777168",
"9 c #7E7569",
"0 c #7F786E",
"q c #817566",
"w c #887764",
"e c #837867",
"r c #817669",
"t c #847A6C",
"y c #897D6E",
"u c #867D71",
"i c #897E71",
"p c #DFBD00",
"a c #F5DB38",
"s c #FFFF3A",
"d c #8C806F",
"f c #878076",
"g c #8C8273",
"h c #8D8579",
"j c #8F887D",
"k c #928575",
"l c #958977",
"z c #928779",
"x c #958A7B",
"c c #998C7B",
"v c #9E917F",
"b c #A0927F",
"n c #9D9383",
"m c #999288",
"M c #A29483",
"N c #A89988",
"B c #ADA18F",
/* pixels */
"7uu49u9;9801e9695;4y:<7ttt9q57*<7t5757-7w;-w4qrr44rr&4q&4qqq-rtq",
"7<54tt0<9970e>:d<46yt6<4t9q<47>>4i71t1554,qq*4r4qriq*qq&4rqi55rr",
"454tyt74<7<g><>997<y<97<212w1r979fy7u5tr,;ii,q8;qqur,qr<-55zr-48",
"797zgy;2677d>,7<4t,cet7k5qyke77rght7rrriqqii4rq4:4qyqqriq84htqri",
"tt7g9412ye6t97<25u<i959ry7qtf97<rt5ir5,rriqirqrr54rcrrrriirii5ut",
"9<479;;<<6;097terr555r47r,<t<1t<,1riqr545q4ir,4tr4rir45t8r:5q:5;",
"ri947-<4<<7x74e0<-4ur95qr747<774555ttr44<quiu75rr8;ir44urr;;q;:;",
"ru471<77r<tj<<<:t59i5-5q<57qqt7y1<5<998t<q4titqt*rrh44rr884qrruq",
"t5i975559<ti,544t57u5-5r<<8y299955r1u7485-5r55;5;r8u444454qu5irq",
"<5zu,r877trt5509tutr9-,r5<4u-0<275krr<;u9,1,*5;4845t77rr;8irirq5",
"54ti*4559ftk9t85ihtt455tr7>94yqq55q7-7yfq<<1-t44ttti44rr5844uiy5",
"t51r4:43<:7l409ugtte<iywu6<7t970417q4rr77q5y5t5rrrrit44rir5,rir4",
"im5ut745949h:-4ugq5,5tt5r19t62<-719t9q7<5q7i,4,t4rr4r5rqut5q58r3",
"tt5rtr478t79544ur<754r95q47yy<<;<<u9q797374iu;ti4q4q8rt4*r7rq4rr",
"<t555r,,,u97533tr5tgq5;9745kg>70t7u<9<9<744iu5qt444r55,rriiiu:;u",
",5qg,t4,,55r<349755u75&<4<<t7<<yx40r><77q,5t,4qr;;q4,-4it5ri5r,q",
"117k55ix5q45q8uq<:4q8q:r6tt777<<t,1i43455,<u8;4,:qqru:ii45qq*tq4",
"r,rtq5hiqu8u8uiq55rqqr4qtett76<9qq1c955q455t9u4-;55rr4ru5<5i:i4q",
"4,ic57huqqqzuittqhjqri8qyyqe07;t<1<y,4uqquru5iu<4;q54r4rr55irq*q",
"u5gBttulr4qciqrzrtrriiruk79lt770,>,i<<q55r5t4irtr<5rytuiturt444i",
"tr5ctr5iurxi:=riitfrzuuqky<g9r7-<q,qi<54r754&:45ttriiu8iyrtr4-qq",
"r9rht549i8qr54ruuririq5q1e2xg94<,><,i*4tq,444-rt-q8uir4qqqrry4<<",
"59uiz848fu54t5r8qquir4q5>97cg<>7*&q4q4*,,qr,5r7t,qrrhr*4tiiiirq4",
"r9ririu4:ri4trrrrruxuqr5<71k7<--45zu5q*4qy545rrt54rirq;irryiur55",
"itrr8ii:-:i44r5rfrrhtrqq55ui<-<<,&il4t,,ur-7yurr777y,rri8qiii4,:",
"utr5:54:r484qqrurrrtrrttr:ri<<yd,&tk9u55tt55tt5r744r:u9rr:iiiq5u",
"5rriqq55iiqqt4itrrqtqriqt;<i><xh549ztt7q55t5q<,55&5i:u54r;5ziiri",
"iqqMyrqiiiqrzrrqqrri,8tru:qM<9dg5r9ii97qq5iz7qrr5r5iqr,5i8rMiyqn",
"kiritq44iyryq-q<qtqi54rhq-wN,422yfy95585irrx555rtrrit554mztir44i",
"9q655u544q,tq5q-4r;irrt444yy<4oo%ot<,4:rit5tt7,44rut5,54uuqqt,4q",
"trrtq7r4q<*tiq&&qt;thi<&;riw%oaaaao;7t57ti5qt<4r57t4q4-;q4qqi4rr",
"5455qqr4<q-iyr<<qqui4ir445u%ssaaaaao7<5;<urqq5r4q,45,q54r4rir5iq",
"<5-<5r<5q11d<q2995gw&5t-5<osssaassso>-<6<451tt559,4i4:7999qy9t5<",
"8i,4q57111q7-<0<5rir,5t-79ossssssssso2d<q;54r-,r499ki5<<tqqq7t7<",
"ryu5r5ir,,yg<77<9rtg7yg1<<ososssssssoed-4,qi>>*44y4k<r9477qy7yyt",
"yfttwqriq,dz;777444krtyy17ososssssssod2,<4qi,*<<:y<cyttcewybhq9y",
"5t7kt<,9rrrr;679448z7617gy%sossssssso<<>qq4uu4,3<0<ygutggythx<74",
",<7dt-49--452->0544t9<<949ososssaaaaao>,>4>ry5qr77,ri9859yty71e<",
"9<7tu,*8-,7<7-99,7&iy<:e77ospsssappppo;<;;qxt<77;,-g74,t>77t<<4<",
"<<775948*<<<<,d9,rqc2;6y7<<osssssppppo7754un544395tc7<75;<77977y",
">7y115<:7<<7>967tr5t,-35444osssssppppo7174tg4757r4ri7<7t7<99<677",
"1<ge7-*4ty<2-97<4$,55555<8u%sssssppppo99<7ry4riitrtu7,>t9769$7-<",
"47qg957579<y7<9<7@3t345r74,1ospssppppo7750ug5qitrtug7qtytt<7<rqe",
"79ygrq5467yy29d<i4qiu5<rir>1osssspppp%455u7kqwqqtqwrqkygy6tyr9et",
"ttufrr,-647e77<<yg575,,5yd<7qossppppo477u94iq1q4uur-7ty5q7gy72<*",
"<7utiqtuy<:9g7<<9945,95,$7<tyosspooog99tir5qi5qrq5q59yt9y9tt9-<<",
"y6u4t7y69999y<4u49,7<7i5<yttd4%ooityi7<4ut97ltqrt5qit9<te67ht-7t",
"x4rt,<7<<7fet74gg9<,**u5q<7y995q7qrcr45555rtrtq1r5qi67;7747t<-<t",
"f7<l<6<79=9d99<74r45qqtq4,ry*rr5445i74ur5>wk9r54r5qr995r5ttr54,;",
"9q7c09977=ey;;9q---;777r4;5t3i45r*qwr7r7rq5y5rr755t7ri95r0er554r",
"127y<7z99<<g97tt,:yr4745qq,i5q&,3>ti54tqr5qi<tiq7hi9ut5rirqy74<t",
"511l7ydy977lgtf74,qrtrtuqtqc<>-q7>uNq7rzi5zcw5q59r9tft7wgrtc749t",
"7r7yl7t9t519497<utriqr4:rqqiq*44545iq44iiqtqq>*7u9h9iu97yd2kt04<",
"<<<7h<9g9-<<75444r8rq54,i$,nw......y4&&4r4>51-<594r574<<>7<xzt45",
";-u6t7-9<qt<797y;5rqq;;:i:;XOXXX.X+XX;;*744r,,,>3<555,,<>2<kg4<t",
"77jd29;9et7<764r4,4n5rr4t4,OXXX...XO.rr4*-5r<5,$44qi75q1,<<k755-",
"<=yg<e>,t<=<de7q555n67u4<4rOX ..+XOXXrr*-3<55q1,97qd77<257td,1t7",
"-$9y6e1<97><9e-75,qz6t74r4yy4..OX+Oq344*r<<<55qr197e7<99447g1qgy",
"-;7y0d7<<<7<1<;74-6n7r4qq--yrqyi5qukrq74u95<45rq29<d<<0>9:<k<1zu",
">76edd2777ee129y4r9nrr,5y<<iiywit5tciqrrri515<1<2q2e*<779;7nt777",
"<k2<0:,dgf297<<qqqrir55,mi5rq4*rqyryrq,,rr,q<<1<1t<y,<dg6;9ve4;<",
"ed<,d;2267-7t<,<37rur4qquq4:4-,q-r<<5r4411*557,;59-0700<<7de7--f",
"h:<<7<ett9>dt-775qr4yq,qq,q4r-;5q55qq1545<-7t5%%7t-4ed,-,dc7q:<d",
"<-29e<,%2%>q>-7->>;>-q<&q1,q1<-;q;,<14q-*>>q7<%$<>6t,e1=:<2<><<#"
};
