/* XPM */
static char *result[] = {
/* columns rows colors chars-per-pixel */
"64 64 57 1 ",
"  c #473B39",
". c #4A3D3B",
"X c #4E413E",
"o c #50423F",
"O c #71693F",
"+ c #524441",
"@ c #574943",
"# c #5A5146",
"$ c #5E574C",
"% c #645B4F",
"& c #685E4E",
"* c #665D52",
"= c #695F52",
"- c #676056",
"; c #6C6255",
": c #6E655A",
"> c #6E685F",
", c #716556",
"< c #71665A",
"1 c #746A5D",
"2 c #796D5E",
"3 c #7C705E",
"4 c #6F6A61",
"5 c #766D61",
"6 c #796E62",
"7 c #777066",
"8 c #7C7265",
"9 c #777168",
"0 c #7E7569",
"q c #7F786E",
"w c #817566",
"e c #887764",
"r c #837867",
"t c #817669",
"y c #847A6C",
"u c #897D6E",
"i c #867D71",
"p c #897E71",
"a c #DFBD00",
"s c #F5DB38",
"d c #FFFF3A",
"f c #8C806F",
"g c #878076",
"h c #8C8273",
"j c #8D8579",
"k c #8F887D",
"l c #928575",
"z c #958977",
"x c #928779",
"c c #958A7B",
"v c #998C7B",
"b c #A0927F",
"n c #9D9383",
"m c #999288",
"M c #A29483",
"N c #A89988",
"B c #ADA18F",
/* pixels */
"8ii50i0:09q2y0708:5y118yyyy868=18y5868:8t,;w5wtt66tt%1w*5ttw:ttw",
"8165yyq1008y0,>f157yq811y8w25w,,5p82y2655<ww;5t1w9pt=ww%>ttp<wtt",
"565yuy85182f,1,8081u1081328e1tw8qhy8i6yt<,pp<w8:wtyt<tt<<55xt:56",
"808xhu:3787f,,735y<vry8x6wfft88thjy8tttptwpp5ww611wpwttpww5xywtp",
"yy8h0523yr8y08216i2p060tu88yh881ty6pw5<typwptwtt95tcttwtpp9pp5iy",
"01580::117:q00ryt0166t58t<5y18y2<2wptt556w6pt<5yt1tpt5wywt>ww>5:",
"tp058;15118c87yq5<5yt82wt658<885826iyy5616ipi86tt9:pt5>it9::w><>",
"ti582188y1yj111:y50p6:6w268wty8y5151060y1w6ypytt=ttx55tyw51tttyt",
"t6p0066585tu1555t68i6;6y1:0u8q8r65t2i8586=6t66<6:twp185555wy5ptt",
"16ci<t608qty68q0ipit6:<t615i;y11w6pt01:iq12<=6:5619tw9tt>9ytpyw5",
"65yp=566tpyl0i85phyy568yy8,01uww85ew;8ug61<2;y55tttp11tt59>wypyw",
"t82t1>541>0x1q0ihyyr1pyei718t08q168w5tt8tw6u6y6ttitii86tiyw<tpt5",
"jctiy856050j>:5ihw6<6yy6y20y811;820y8t855t6p<5<t5tt6w6w9yy8w5wt>",
"tq6wyt589t0t555it1865w08858uf<1111y0y888565pi<yp>t6t9ty1=t9tt59t",
"1y665t<<1y0694:yt6yhw8:0856xh:8qy8p58188855pi6wy515y68<ttpppt1:p",
"<8wh1t51<5601550866i66*151<y815ux5qt:<88t<6y15wt::w><;5py8ti8t1w",
"226h86pcw599w9it<<5w99>t5yu88811e<wp1415w:1u5><<>w5yi>pj15wt*tww",
"01tuw6jpttwtwipt5wtwwtwwyyy08710wwwpt65w165yti9::w5tt5tiw<5u>p<w",
"1<pv68jiwwwpipiywjkwtp5tpuwry8>y<w1p:1iwwyty8py55:w55t5tww>xt5-t",
"y8hBuyixy1tviwtpwittpgtyl88zy880<;<p51ww6twt5ityt<wtiyiptitt>w5p",
"u06vyw6jitcj<-wxptjtxpttly2h8t6<5w<tp<w1tw55*:55tutiiiwiytytw;ww",
"0ttlt640iwwtw59iititpwww2r2vpq6<<:<<i:1yw:514:tu;wwigt1wtwtttw<:",
"60ipp959gi59t5t9ttiut55w1w8cl5,8=%w1w:=<:tt>5ywy<wttjt;5yppuptw5",
"t0tpyjy5>tp5tttttticiwt5166l61,=58xpwt=1wyw55ttyw>wptw:ittiuit5w",
"iytt9pi1->p59t5tittkttww5wip<,12<*pn5y:<it=8pittt66y:twpwwupp1<1",
"iyy5>651t595t6yyttwyiwtit>tp6<yp<*ppwy5wyy66yy5w655w>ittt>pppt6y",
"6ttpww5wpp6ty6pywtwywwpwy::p:<cl51tpytww56uww5<66=6k<i66t:6cppyp",
"pwwMuwwpppttxtewtttp:wyyy:wN6wppwt9pp88w8wppw6wy6t6pwt>6p6tmppyc",
"lptpyw<5pptuw;w<wywp55yp9:tN:5w6ujuw6866pttcw58tytwpy55<mktxt55p",
"ww688y655w<ywww:wt:ptty51wuu55yw6yy1<5>tpy8tt9:59titw:5witwwu:5t",
"yttt89t6w1=ypw=%1y:yxp<-:tpw62OO&Ou<8t69ypw5t15t9wy1w<;:w<wtu>ty",
"555wwty51w;ptt<5twip5py>65yt1&ssss&w856:<iwwwwt1w:1w:ww>twyutwyw",
"15,16y15w21f188qw6py*6y;61yu6OssssO81:175562yt668<5h5>880tru8y61",
"8i<5w66122w8;2r16tuy<8y;808u1OddddO0-3f16,w1t,<t500li811ywww6u81",
"tiy6t6it<1ul>88:0tyu8uh2<5<h;OddddOy7rf;5<tp=<=57u5x1t0582wu8put",
"ipryuwylw,fx:888555ltyuu281huOddddOeff3,51wp<=51:u1zuyycryfbjwtu",
"6y6ly11tt8ty:780666c8858hp8iuOddddOh011,ww1pi5:51q1hhtiphuyjc655",
"118hy=46:;562;,y645i811050115OddddOff::,<5,tu6wt88,wpt888fyi82y1",
"828yp1=7;1818;00<6*pu1:y87>:5OddddO0f:>2::wxy5w8<<:h051t<88y1111",
"52286057=11<1<f0<wtv6>5u8518yOddddO0118365in655406yc6566<188w88u",
"<6u2261:8518,878ty6t<<15555i6&aaaaOi886685tg5666t5tp816y810t<887",
"61lr6:=5yh<3:q825%18556648ptfOaaaaOg5t8058tu6wppttyi8<<y8890*8<<",
"56th0506881u23818#4t456t85<2fOssssOh<08860ip2wptwitl8wyuu058<trw",
"80uhtt6178uu80y1p5wpy61tpt,2lOssssOu1>568iwxwtytywyywlfuu7yyywry",
"yypgyt<:578r8861uh6891:5uu1weOssssOh8780it5pwww5uyt;8ui8r8ly88,;",
"17iypwwyu5>8h8<18t56<t51=61yuOssssOhh88ypt6tu6ett6w60uy0u8yy8:1<",
"u8i5y8p80t08u12i501618u61yyrp&aaaaOuh815yy86lytwu5wpt81y078xr;8u",
"x5ty:18117iuy88gg81<==u5r28uweO&OO0cw66685yyty66t6wp87:8887y1:1y",
"g81z1858q-8h8q181t55twyw<1tu=ty56<wu85it6;up0t6<r5tt088y5tyt651:",
"8ywcq8078-wu::8r;;;:8w8t5:5u:p5wt=wytwwwtwwu6ttw66y8tp06ttwt661t",
"288u18xr812h08uy:>yt4t<8ww<pw6*<:<tp65ytt6tp1yiw0pp8iy6tpttp861y",
"222lwyhy088zhyg891wyttuituep5<;tw<yNw8ypewzve6t6qy0ypy8yl8iv060t",
"8y8yz8y8u2605881iytptt5>ywwpw%<5656pw15puwttw,=8yqj0iit6uf2ltq51",
"1<53x1qj0;1178555t6tw851p*1me.X....u5**5t5,62;1605t5w511,31cxy56",
":-h7y8:818y1888p:6ttw=<<p::+@ooX..++o>>=855t<,<;4<6w1<<1<81xh5<y",
"88kf28:8ry85875w5:wv90t5y1.+oXXX.+.+.ot5=;6t1w<%55wpw5w2,11l826:",
"1-yj1y,,y1-3y88r65wM9ti<51w@+  o@++oXty::><66w1<88qf882388yf<6y3",
"-*ru7y1188,1ry:8618p9tw>t5yuw  +++@t4<5=t11155wr388e8108518f2whp",
"&17u0f3811818<:81;6m6w5ww;<ywwupw8pptw8<i08155yw881f11q<8>>l12ci",
",82rff8880rr23wy5t8myt<8i1<ppyepe6tnpttttp62w121302e-188y:8nu868",
"2f82f:>rhf88811twwtxtww5mpwtww=ywuyptw<1tt<811213y1y11yh8:8ny1:1",
"rf1,q:8378-8r1<1:wtit55titw;5*;5;t1<5t5122=668<:5q:q8qy118fr8;:g",
"j11182yry8,fy:6w5wt5uw<5w,1wt;<>ww5ww5w<21;8y6&&8y;1fy>;:fv8r>,f",
"1-20r1,&3;,w,;8;<,,;;w<*ww11w<,:w;,,w1w:;,,w81&%1<8r,r2-:131;21$"
};
